G04 #@! TF.GenerationSoftware,KiCad,Pcbnew,(5.1.4)-1*
G04 #@! TF.CreationDate,2020-02-21T12:34:06+01:00*
G04 #@! TF.ProjectId,HB-UNI-Sen-TEMP-MAX6675,48422d55-4e49-42d5-9365-6e2d54454d50,rev?*
G04 #@! TF.SameCoordinates,Original*
G04 #@! TF.FileFunction,Paste,Top*
G04 #@! TF.FilePolarity,Positive*
%FSLAX46Y46*%
G04 Gerber Fmt 4.6, Leading zero omitted, Abs format (unit mm)*
G04 Created by KiCad (PCBNEW (5.1.4)-1) date 2020-02-21 12:34:06*
%MOMM*%
%LPD*%
G04 APERTURE LIST*
%ADD10C,0.100000*%
%ADD11C,0.600000*%
%ADD12R,0.650000X1.560000*%
%ADD13R,1.800000X1.500000*%
%ADD14C,1.150000*%
%ADD15C,1.325000*%
%ADD16C,1.300000*%
%ADD17R,0.550000X1.600000*%
%ADD18R,1.600000X0.550000*%
%ADD19R,0.300000X1.524000*%
G04 APERTURE END LIST*
D10*
G36*
X164534703Y-87711722D02*
G01*
X164549264Y-87713882D01*
X164563543Y-87717459D01*
X164577403Y-87722418D01*
X164590710Y-87728712D01*
X164603336Y-87736280D01*
X164615159Y-87745048D01*
X164626066Y-87754934D01*
X164635952Y-87765841D01*
X164644720Y-87777664D01*
X164652288Y-87790290D01*
X164658582Y-87803597D01*
X164663541Y-87817457D01*
X164667118Y-87831736D01*
X164669278Y-87846297D01*
X164670000Y-87861000D01*
X164670000Y-88161000D01*
X164669278Y-88175703D01*
X164667118Y-88190264D01*
X164663541Y-88204543D01*
X164658582Y-88218403D01*
X164652288Y-88231710D01*
X164644720Y-88244336D01*
X164635952Y-88256159D01*
X164626066Y-88267066D01*
X164615159Y-88276952D01*
X164603336Y-88285720D01*
X164590710Y-88293288D01*
X164577403Y-88299582D01*
X164563543Y-88304541D01*
X164549264Y-88308118D01*
X164534703Y-88310278D01*
X164520000Y-88311000D01*
X163070000Y-88311000D01*
X163055297Y-88310278D01*
X163040736Y-88308118D01*
X163026457Y-88304541D01*
X163012597Y-88299582D01*
X162999290Y-88293288D01*
X162986664Y-88285720D01*
X162974841Y-88276952D01*
X162963934Y-88267066D01*
X162954048Y-88256159D01*
X162945280Y-88244336D01*
X162937712Y-88231710D01*
X162931418Y-88218403D01*
X162926459Y-88204543D01*
X162922882Y-88190264D01*
X162920722Y-88175703D01*
X162920000Y-88161000D01*
X162920000Y-87861000D01*
X162920722Y-87846297D01*
X162922882Y-87831736D01*
X162926459Y-87817457D01*
X162931418Y-87803597D01*
X162937712Y-87790290D01*
X162945280Y-87777664D01*
X162954048Y-87765841D01*
X162963934Y-87754934D01*
X162974841Y-87745048D01*
X162986664Y-87736280D01*
X162999290Y-87728712D01*
X163012597Y-87722418D01*
X163026457Y-87717459D01*
X163040736Y-87713882D01*
X163055297Y-87711722D01*
X163070000Y-87711000D01*
X164520000Y-87711000D01*
X164534703Y-87711722D01*
X164534703Y-87711722D01*
G37*
D11*
X163795000Y-88011000D03*
D10*
G36*
X164534703Y-86441722D02*
G01*
X164549264Y-86443882D01*
X164563543Y-86447459D01*
X164577403Y-86452418D01*
X164590710Y-86458712D01*
X164603336Y-86466280D01*
X164615159Y-86475048D01*
X164626066Y-86484934D01*
X164635952Y-86495841D01*
X164644720Y-86507664D01*
X164652288Y-86520290D01*
X164658582Y-86533597D01*
X164663541Y-86547457D01*
X164667118Y-86561736D01*
X164669278Y-86576297D01*
X164670000Y-86591000D01*
X164670000Y-86891000D01*
X164669278Y-86905703D01*
X164667118Y-86920264D01*
X164663541Y-86934543D01*
X164658582Y-86948403D01*
X164652288Y-86961710D01*
X164644720Y-86974336D01*
X164635952Y-86986159D01*
X164626066Y-86997066D01*
X164615159Y-87006952D01*
X164603336Y-87015720D01*
X164590710Y-87023288D01*
X164577403Y-87029582D01*
X164563543Y-87034541D01*
X164549264Y-87038118D01*
X164534703Y-87040278D01*
X164520000Y-87041000D01*
X163070000Y-87041000D01*
X163055297Y-87040278D01*
X163040736Y-87038118D01*
X163026457Y-87034541D01*
X163012597Y-87029582D01*
X162999290Y-87023288D01*
X162986664Y-87015720D01*
X162974841Y-87006952D01*
X162963934Y-86997066D01*
X162954048Y-86986159D01*
X162945280Y-86974336D01*
X162937712Y-86961710D01*
X162931418Y-86948403D01*
X162926459Y-86934543D01*
X162922882Y-86920264D01*
X162920722Y-86905703D01*
X162920000Y-86891000D01*
X162920000Y-86591000D01*
X162920722Y-86576297D01*
X162922882Y-86561736D01*
X162926459Y-86547457D01*
X162931418Y-86533597D01*
X162937712Y-86520290D01*
X162945280Y-86507664D01*
X162954048Y-86495841D01*
X162963934Y-86484934D01*
X162974841Y-86475048D01*
X162986664Y-86466280D01*
X162999290Y-86458712D01*
X163012597Y-86452418D01*
X163026457Y-86447459D01*
X163040736Y-86443882D01*
X163055297Y-86441722D01*
X163070000Y-86441000D01*
X164520000Y-86441000D01*
X164534703Y-86441722D01*
X164534703Y-86441722D01*
G37*
D11*
X163795000Y-86741000D03*
D10*
G36*
X164534703Y-85171722D02*
G01*
X164549264Y-85173882D01*
X164563543Y-85177459D01*
X164577403Y-85182418D01*
X164590710Y-85188712D01*
X164603336Y-85196280D01*
X164615159Y-85205048D01*
X164626066Y-85214934D01*
X164635952Y-85225841D01*
X164644720Y-85237664D01*
X164652288Y-85250290D01*
X164658582Y-85263597D01*
X164663541Y-85277457D01*
X164667118Y-85291736D01*
X164669278Y-85306297D01*
X164670000Y-85321000D01*
X164670000Y-85621000D01*
X164669278Y-85635703D01*
X164667118Y-85650264D01*
X164663541Y-85664543D01*
X164658582Y-85678403D01*
X164652288Y-85691710D01*
X164644720Y-85704336D01*
X164635952Y-85716159D01*
X164626066Y-85727066D01*
X164615159Y-85736952D01*
X164603336Y-85745720D01*
X164590710Y-85753288D01*
X164577403Y-85759582D01*
X164563543Y-85764541D01*
X164549264Y-85768118D01*
X164534703Y-85770278D01*
X164520000Y-85771000D01*
X163070000Y-85771000D01*
X163055297Y-85770278D01*
X163040736Y-85768118D01*
X163026457Y-85764541D01*
X163012597Y-85759582D01*
X162999290Y-85753288D01*
X162986664Y-85745720D01*
X162974841Y-85736952D01*
X162963934Y-85727066D01*
X162954048Y-85716159D01*
X162945280Y-85704336D01*
X162937712Y-85691710D01*
X162931418Y-85678403D01*
X162926459Y-85664543D01*
X162922882Y-85650264D01*
X162920722Y-85635703D01*
X162920000Y-85621000D01*
X162920000Y-85321000D01*
X162920722Y-85306297D01*
X162922882Y-85291736D01*
X162926459Y-85277457D01*
X162931418Y-85263597D01*
X162937712Y-85250290D01*
X162945280Y-85237664D01*
X162954048Y-85225841D01*
X162963934Y-85214934D01*
X162974841Y-85205048D01*
X162986664Y-85196280D01*
X162999290Y-85188712D01*
X163012597Y-85182418D01*
X163026457Y-85177459D01*
X163040736Y-85173882D01*
X163055297Y-85171722D01*
X163070000Y-85171000D01*
X164520000Y-85171000D01*
X164534703Y-85171722D01*
X164534703Y-85171722D01*
G37*
D11*
X163795000Y-85471000D03*
D10*
G36*
X164534703Y-83901722D02*
G01*
X164549264Y-83903882D01*
X164563543Y-83907459D01*
X164577403Y-83912418D01*
X164590710Y-83918712D01*
X164603336Y-83926280D01*
X164615159Y-83935048D01*
X164626066Y-83944934D01*
X164635952Y-83955841D01*
X164644720Y-83967664D01*
X164652288Y-83980290D01*
X164658582Y-83993597D01*
X164663541Y-84007457D01*
X164667118Y-84021736D01*
X164669278Y-84036297D01*
X164670000Y-84051000D01*
X164670000Y-84351000D01*
X164669278Y-84365703D01*
X164667118Y-84380264D01*
X164663541Y-84394543D01*
X164658582Y-84408403D01*
X164652288Y-84421710D01*
X164644720Y-84434336D01*
X164635952Y-84446159D01*
X164626066Y-84457066D01*
X164615159Y-84466952D01*
X164603336Y-84475720D01*
X164590710Y-84483288D01*
X164577403Y-84489582D01*
X164563543Y-84494541D01*
X164549264Y-84498118D01*
X164534703Y-84500278D01*
X164520000Y-84501000D01*
X163070000Y-84501000D01*
X163055297Y-84500278D01*
X163040736Y-84498118D01*
X163026457Y-84494541D01*
X163012597Y-84489582D01*
X162999290Y-84483288D01*
X162986664Y-84475720D01*
X162974841Y-84466952D01*
X162963934Y-84457066D01*
X162954048Y-84446159D01*
X162945280Y-84434336D01*
X162937712Y-84421710D01*
X162931418Y-84408403D01*
X162926459Y-84394543D01*
X162922882Y-84380264D01*
X162920722Y-84365703D01*
X162920000Y-84351000D01*
X162920000Y-84051000D01*
X162920722Y-84036297D01*
X162922882Y-84021736D01*
X162926459Y-84007457D01*
X162931418Y-83993597D01*
X162937712Y-83980290D01*
X162945280Y-83967664D01*
X162954048Y-83955841D01*
X162963934Y-83944934D01*
X162974841Y-83935048D01*
X162986664Y-83926280D01*
X162999290Y-83918712D01*
X163012597Y-83912418D01*
X163026457Y-83907459D01*
X163040736Y-83903882D01*
X163055297Y-83901722D01*
X163070000Y-83901000D01*
X164520000Y-83901000D01*
X164534703Y-83901722D01*
X164534703Y-83901722D01*
G37*
D11*
X163795000Y-84201000D03*
D10*
G36*
X169684703Y-83901722D02*
G01*
X169699264Y-83903882D01*
X169713543Y-83907459D01*
X169727403Y-83912418D01*
X169740710Y-83918712D01*
X169753336Y-83926280D01*
X169765159Y-83935048D01*
X169776066Y-83944934D01*
X169785952Y-83955841D01*
X169794720Y-83967664D01*
X169802288Y-83980290D01*
X169808582Y-83993597D01*
X169813541Y-84007457D01*
X169817118Y-84021736D01*
X169819278Y-84036297D01*
X169820000Y-84051000D01*
X169820000Y-84351000D01*
X169819278Y-84365703D01*
X169817118Y-84380264D01*
X169813541Y-84394543D01*
X169808582Y-84408403D01*
X169802288Y-84421710D01*
X169794720Y-84434336D01*
X169785952Y-84446159D01*
X169776066Y-84457066D01*
X169765159Y-84466952D01*
X169753336Y-84475720D01*
X169740710Y-84483288D01*
X169727403Y-84489582D01*
X169713543Y-84494541D01*
X169699264Y-84498118D01*
X169684703Y-84500278D01*
X169670000Y-84501000D01*
X168220000Y-84501000D01*
X168205297Y-84500278D01*
X168190736Y-84498118D01*
X168176457Y-84494541D01*
X168162597Y-84489582D01*
X168149290Y-84483288D01*
X168136664Y-84475720D01*
X168124841Y-84466952D01*
X168113934Y-84457066D01*
X168104048Y-84446159D01*
X168095280Y-84434336D01*
X168087712Y-84421710D01*
X168081418Y-84408403D01*
X168076459Y-84394543D01*
X168072882Y-84380264D01*
X168070722Y-84365703D01*
X168070000Y-84351000D01*
X168070000Y-84051000D01*
X168070722Y-84036297D01*
X168072882Y-84021736D01*
X168076459Y-84007457D01*
X168081418Y-83993597D01*
X168087712Y-83980290D01*
X168095280Y-83967664D01*
X168104048Y-83955841D01*
X168113934Y-83944934D01*
X168124841Y-83935048D01*
X168136664Y-83926280D01*
X168149290Y-83918712D01*
X168162597Y-83912418D01*
X168176457Y-83907459D01*
X168190736Y-83903882D01*
X168205297Y-83901722D01*
X168220000Y-83901000D01*
X169670000Y-83901000D01*
X169684703Y-83901722D01*
X169684703Y-83901722D01*
G37*
D11*
X168945000Y-84201000D03*
D10*
G36*
X169684703Y-85171722D02*
G01*
X169699264Y-85173882D01*
X169713543Y-85177459D01*
X169727403Y-85182418D01*
X169740710Y-85188712D01*
X169753336Y-85196280D01*
X169765159Y-85205048D01*
X169776066Y-85214934D01*
X169785952Y-85225841D01*
X169794720Y-85237664D01*
X169802288Y-85250290D01*
X169808582Y-85263597D01*
X169813541Y-85277457D01*
X169817118Y-85291736D01*
X169819278Y-85306297D01*
X169820000Y-85321000D01*
X169820000Y-85621000D01*
X169819278Y-85635703D01*
X169817118Y-85650264D01*
X169813541Y-85664543D01*
X169808582Y-85678403D01*
X169802288Y-85691710D01*
X169794720Y-85704336D01*
X169785952Y-85716159D01*
X169776066Y-85727066D01*
X169765159Y-85736952D01*
X169753336Y-85745720D01*
X169740710Y-85753288D01*
X169727403Y-85759582D01*
X169713543Y-85764541D01*
X169699264Y-85768118D01*
X169684703Y-85770278D01*
X169670000Y-85771000D01*
X168220000Y-85771000D01*
X168205297Y-85770278D01*
X168190736Y-85768118D01*
X168176457Y-85764541D01*
X168162597Y-85759582D01*
X168149290Y-85753288D01*
X168136664Y-85745720D01*
X168124841Y-85736952D01*
X168113934Y-85727066D01*
X168104048Y-85716159D01*
X168095280Y-85704336D01*
X168087712Y-85691710D01*
X168081418Y-85678403D01*
X168076459Y-85664543D01*
X168072882Y-85650264D01*
X168070722Y-85635703D01*
X168070000Y-85621000D01*
X168070000Y-85321000D01*
X168070722Y-85306297D01*
X168072882Y-85291736D01*
X168076459Y-85277457D01*
X168081418Y-85263597D01*
X168087712Y-85250290D01*
X168095280Y-85237664D01*
X168104048Y-85225841D01*
X168113934Y-85214934D01*
X168124841Y-85205048D01*
X168136664Y-85196280D01*
X168149290Y-85188712D01*
X168162597Y-85182418D01*
X168176457Y-85177459D01*
X168190736Y-85173882D01*
X168205297Y-85171722D01*
X168220000Y-85171000D01*
X169670000Y-85171000D01*
X169684703Y-85171722D01*
X169684703Y-85171722D01*
G37*
D11*
X168945000Y-85471000D03*
D10*
G36*
X169684703Y-86441722D02*
G01*
X169699264Y-86443882D01*
X169713543Y-86447459D01*
X169727403Y-86452418D01*
X169740710Y-86458712D01*
X169753336Y-86466280D01*
X169765159Y-86475048D01*
X169776066Y-86484934D01*
X169785952Y-86495841D01*
X169794720Y-86507664D01*
X169802288Y-86520290D01*
X169808582Y-86533597D01*
X169813541Y-86547457D01*
X169817118Y-86561736D01*
X169819278Y-86576297D01*
X169820000Y-86591000D01*
X169820000Y-86891000D01*
X169819278Y-86905703D01*
X169817118Y-86920264D01*
X169813541Y-86934543D01*
X169808582Y-86948403D01*
X169802288Y-86961710D01*
X169794720Y-86974336D01*
X169785952Y-86986159D01*
X169776066Y-86997066D01*
X169765159Y-87006952D01*
X169753336Y-87015720D01*
X169740710Y-87023288D01*
X169727403Y-87029582D01*
X169713543Y-87034541D01*
X169699264Y-87038118D01*
X169684703Y-87040278D01*
X169670000Y-87041000D01*
X168220000Y-87041000D01*
X168205297Y-87040278D01*
X168190736Y-87038118D01*
X168176457Y-87034541D01*
X168162597Y-87029582D01*
X168149290Y-87023288D01*
X168136664Y-87015720D01*
X168124841Y-87006952D01*
X168113934Y-86997066D01*
X168104048Y-86986159D01*
X168095280Y-86974336D01*
X168087712Y-86961710D01*
X168081418Y-86948403D01*
X168076459Y-86934543D01*
X168072882Y-86920264D01*
X168070722Y-86905703D01*
X168070000Y-86891000D01*
X168070000Y-86591000D01*
X168070722Y-86576297D01*
X168072882Y-86561736D01*
X168076459Y-86547457D01*
X168081418Y-86533597D01*
X168087712Y-86520290D01*
X168095280Y-86507664D01*
X168104048Y-86495841D01*
X168113934Y-86484934D01*
X168124841Y-86475048D01*
X168136664Y-86466280D01*
X168149290Y-86458712D01*
X168162597Y-86452418D01*
X168176457Y-86447459D01*
X168190736Y-86443882D01*
X168205297Y-86441722D01*
X168220000Y-86441000D01*
X169670000Y-86441000D01*
X169684703Y-86441722D01*
X169684703Y-86441722D01*
G37*
D11*
X168945000Y-86741000D03*
D10*
G36*
X169684703Y-87711722D02*
G01*
X169699264Y-87713882D01*
X169713543Y-87717459D01*
X169727403Y-87722418D01*
X169740710Y-87728712D01*
X169753336Y-87736280D01*
X169765159Y-87745048D01*
X169776066Y-87754934D01*
X169785952Y-87765841D01*
X169794720Y-87777664D01*
X169802288Y-87790290D01*
X169808582Y-87803597D01*
X169813541Y-87817457D01*
X169817118Y-87831736D01*
X169819278Y-87846297D01*
X169820000Y-87861000D01*
X169820000Y-88161000D01*
X169819278Y-88175703D01*
X169817118Y-88190264D01*
X169813541Y-88204543D01*
X169808582Y-88218403D01*
X169802288Y-88231710D01*
X169794720Y-88244336D01*
X169785952Y-88256159D01*
X169776066Y-88267066D01*
X169765159Y-88276952D01*
X169753336Y-88285720D01*
X169740710Y-88293288D01*
X169727403Y-88299582D01*
X169713543Y-88304541D01*
X169699264Y-88308118D01*
X169684703Y-88310278D01*
X169670000Y-88311000D01*
X168220000Y-88311000D01*
X168205297Y-88310278D01*
X168190736Y-88308118D01*
X168176457Y-88304541D01*
X168162597Y-88299582D01*
X168149290Y-88293288D01*
X168136664Y-88285720D01*
X168124841Y-88276952D01*
X168113934Y-88267066D01*
X168104048Y-88256159D01*
X168095280Y-88244336D01*
X168087712Y-88231710D01*
X168081418Y-88218403D01*
X168076459Y-88204543D01*
X168072882Y-88190264D01*
X168070722Y-88175703D01*
X168070000Y-88161000D01*
X168070000Y-87861000D01*
X168070722Y-87846297D01*
X168072882Y-87831736D01*
X168076459Y-87817457D01*
X168081418Y-87803597D01*
X168087712Y-87790290D01*
X168095280Y-87777664D01*
X168104048Y-87765841D01*
X168113934Y-87754934D01*
X168124841Y-87745048D01*
X168136664Y-87736280D01*
X168149290Y-87728712D01*
X168162597Y-87722418D01*
X168176457Y-87717459D01*
X168190736Y-87713882D01*
X168205297Y-87711722D01*
X168220000Y-87711000D01*
X169670000Y-87711000D01*
X169684703Y-87711722D01*
X169684703Y-87711722D01*
G37*
D11*
X168945000Y-88011000D03*
D10*
G36*
X152264703Y-87711722D02*
G01*
X152279264Y-87713882D01*
X152293543Y-87717459D01*
X152307403Y-87722418D01*
X152320710Y-87728712D01*
X152333336Y-87736280D01*
X152345159Y-87745048D01*
X152356066Y-87754934D01*
X152365952Y-87765841D01*
X152374720Y-87777664D01*
X152382288Y-87790290D01*
X152388582Y-87803597D01*
X152393541Y-87817457D01*
X152397118Y-87831736D01*
X152399278Y-87846297D01*
X152400000Y-87861000D01*
X152400000Y-88161000D01*
X152399278Y-88175703D01*
X152397118Y-88190264D01*
X152393541Y-88204543D01*
X152388582Y-88218403D01*
X152382288Y-88231710D01*
X152374720Y-88244336D01*
X152365952Y-88256159D01*
X152356066Y-88267066D01*
X152345159Y-88276952D01*
X152333336Y-88285720D01*
X152320710Y-88293288D01*
X152307403Y-88299582D01*
X152293543Y-88304541D01*
X152279264Y-88308118D01*
X152264703Y-88310278D01*
X152250000Y-88311000D01*
X150800000Y-88311000D01*
X150785297Y-88310278D01*
X150770736Y-88308118D01*
X150756457Y-88304541D01*
X150742597Y-88299582D01*
X150729290Y-88293288D01*
X150716664Y-88285720D01*
X150704841Y-88276952D01*
X150693934Y-88267066D01*
X150684048Y-88256159D01*
X150675280Y-88244336D01*
X150667712Y-88231710D01*
X150661418Y-88218403D01*
X150656459Y-88204543D01*
X150652882Y-88190264D01*
X150650722Y-88175703D01*
X150650000Y-88161000D01*
X150650000Y-87861000D01*
X150650722Y-87846297D01*
X150652882Y-87831736D01*
X150656459Y-87817457D01*
X150661418Y-87803597D01*
X150667712Y-87790290D01*
X150675280Y-87777664D01*
X150684048Y-87765841D01*
X150693934Y-87754934D01*
X150704841Y-87745048D01*
X150716664Y-87736280D01*
X150729290Y-87728712D01*
X150742597Y-87722418D01*
X150756457Y-87717459D01*
X150770736Y-87713882D01*
X150785297Y-87711722D01*
X150800000Y-87711000D01*
X152250000Y-87711000D01*
X152264703Y-87711722D01*
X152264703Y-87711722D01*
G37*
D11*
X151525000Y-88011000D03*
D10*
G36*
X152264703Y-86441722D02*
G01*
X152279264Y-86443882D01*
X152293543Y-86447459D01*
X152307403Y-86452418D01*
X152320710Y-86458712D01*
X152333336Y-86466280D01*
X152345159Y-86475048D01*
X152356066Y-86484934D01*
X152365952Y-86495841D01*
X152374720Y-86507664D01*
X152382288Y-86520290D01*
X152388582Y-86533597D01*
X152393541Y-86547457D01*
X152397118Y-86561736D01*
X152399278Y-86576297D01*
X152400000Y-86591000D01*
X152400000Y-86891000D01*
X152399278Y-86905703D01*
X152397118Y-86920264D01*
X152393541Y-86934543D01*
X152388582Y-86948403D01*
X152382288Y-86961710D01*
X152374720Y-86974336D01*
X152365952Y-86986159D01*
X152356066Y-86997066D01*
X152345159Y-87006952D01*
X152333336Y-87015720D01*
X152320710Y-87023288D01*
X152307403Y-87029582D01*
X152293543Y-87034541D01*
X152279264Y-87038118D01*
X152264703Y-87040278D01*
X152250000Y-87041000D01*
X150800000Y-87041000D01*
X150785297Y-87040278D01*
X150770736Y-87038118D01*
X150756457Y-87034541D01*
X150742597Y-87029582D01*
X150729290Y-87023288D01*
X150716664Y-87015720D01*
X150704841Y-87006952D01*
X150693934Y-86997066D01*
X150684048Y-86986159D01*
X150675280Y-86974336D01*
X150667712Y-86961710D01*
X150661418Y-86948403D01*
X150656459Y-86934543D01*
X150652882Y-86920264D01*
X150650722Y-86905703D01*
X150650000Y-86891000D01*
X150650000Y-86591000D01*
X150650722Y-86576297D01*
X150652882Y-86561736D01*
X150656459Y-86547457D01*
X150661418Y-86533597D01*
X150667712Y-86520290D01*
X150675280Y-86507664D01*
X150684048Y-86495841D01*
X150693934Y-86484934D01*
X150704841Y-86475048D01*
X150716664Y-86466280D01*
X150729290Y-86458712D01*
X150742597Y-86452418D01*
X150756457Y-86447459D01*
X150770736Y-86443882D01*
X150785297Y-86441722D01*
X150800000Y-86441000D01*
X152250000Y-86441000D01*
X152264703Y-86441722D01*
X152264703Y-86441722D01*
G37*
D11*
X151525000Y-86741000D03*
D10*
G36*
X152264703Y-85171722D02*
G01*
X152279264Y-85173882D01*
X152293543Y-85177459D01*
X152307403Y-85182418D01*
X152320710Y-85188712D01*
X152333336Y-85196280D01*
X152345159Y-85205048D01*
X152356066Y-85214934D01*
X152365952Y-85225841D01*
X152374720Y-85237664D01*
X152382288Y-85250290D01*
X152388582Y-85263597D01*
X152393541Y-85277457D01*
X152397118Y-85291736D01*
X152399278Y-85306297D01*
X152400000Y-85321000D01*
X152400000Y-85621000D01*
X152399278Y-85635703D01*
X152397118Y-85650264D01*
X152393541Y-85664543D01*
X152388582Y-85678403D01*
X152382288Y-85691710D01*
X152374720Y-85704336D01*
X152365952Y-85716159D01*
X152356066Y-85727066D01*
X152345159Y-85736952D01*
X152333336Y-85745720D01*
X152320710Y-85753288D01*
X152307403Y-85759582D01*
X152293543Y-85764541D01*
X152279264Y-85768118D01*
X152264703Y-85770278D01*
X152250000Y-85771000D01*
X150800000Y-85771000D01*
X150785297Y-85770278D01*
X150770736Y-85768118D01*
X150756457Y-85764541D01*
X150742597Y-85759582D01*
X150729290Y-85753288D01*
X150716664Y-85745720D01*
X150704841Y-85736952D01*
X150693934Y-85727066D01*
X150684048Y-85716159D01*
X150675280Y-85704336D01*
X150667712Y-85691710D01*
X150661418Y-85678403D01*
X150656459Y-85664543D01*
X150652882Y-85650264D01*
X150650722Y-85635703D01*
X150650000Y-85621000D01*
X150650000Y-85321000D01*
X150650722Y-85306297D01*
X150652882Y-85291736D01*
X150656459Y-85277457D01*
X150661418Y-85263597D01*
X150667712Y-85250290D01*
X150675280Y-85237664D01*
X150684048Y-85225841D01*
X150693934Y-85214934D01*
X150704841Y-85205048D01*
X150716664Y-85196280D01*
X150729290Y-85188712D01*
X150742597Y-85182418D01*
X150756457Y-85177459D01*
X150770736Y-85173882D01*
X150785297Y-85171722D01*
X150800000Y-85171000D01*
X152250000Y-85171000D01*
X152264703Y-85171722D01*
X152264703Y-85171722D01*
G37*
D11*
X151525000Y-85471000D03*
D10*
G36*
X152264703Y-83901722D02*
G01*
X152279264Y-83903882D01*
X152293543Y-83907459D01*
X152307403Y-83912418D01*
X152320710Y-83918712D01*
X152333336Y-83926280D01*
X152345159Y-83935048D01*
X152356066Y-83944934D01*
X152365952Y-83955841D01*
X152374720Y-83967664D01*
X152382288Y-83980290D01*
X152388582Y-83993597D01*
X152393541Y-84007457D01*
X152397118Y-84021736D01*
X152399278Y-84036297D01*
X152400000Y-84051000D01*
X152400000Y-84351000D01*
X152399278Y-84365703D01*
X152397118Y-84380264D01*
X152393541Y-84394543D01*
X152388582Y-84408403D01*
X152382288Y-84421710D01*
X152374720Y-84434336D01*
X152365952Y-84446159D01*
X152356066Y-84457066D01*
X152345159Y-84466952D01*
X152333336Y-84475720D01*
X152320710Y-84483288D01*
X152307403Y-84489582D01*
X152293543Y-84494541D01*
X152279264Y-84498118D01*
X152264703Y-84500278D01*
X152250000Y-84501000D01*
X150800000Y-84501000D01*
X150785297Y-84500278D01*
X150770736Y-84498118D01*
X150756457Y-84494541D01*
X150742597Y-84489582D01*
X150729290Y-84483288D01*
X150716664Y-84475720D01*
X150704841Y-84466952D01*
X150693934Y-84457066D01*
X150684048Y-84446159D01*
X150675280Y-84434336D01*
X150667712Y-84421710D01*
X150661418Y-84408403D01*
X150656459Y-84394543D01*
X150652882Y-84380264D01*
X150650722Y-84365703D01*
X150650000Y-84351000D01*
X150650000Y-84051000D01*
X150650722Y-84036297D01*
X150652882Y-84021736D01*
X150656459Y-84007457D01*
X150661418Y-83993597D01*
X150667712Y-83980290D01*
X150675280Y-83967664D01*
X150684048Y-83955841D01*
X150693934Y-83944934D01*
X150704841Y-83935048D01*
X150716664Y-83926280D01*
X150729290Y-83918712D01*
X150742597Y-83912418D01*
X150756457Y-83907459D01*
X150770736Y-83903882D01*
X150785297Y-83901722D01*
X150800000Y-83901000D01*
X152250000Y-83901000D01*
X152264703Y-83901722D01*
X152264703Y-83901722D01*
G37*
D11*
X151525000Y-84201000D03*
D10*
G36*
X157414703Y-83901722D02*
G01*
X157429264Y-83903882D01*
X157443543Y-83907459D01*
X157457403Y-83912418D01*
X157470710Y-83918712D01*
X157483336Y-83926280D01*
X157495159Y-83935048D01*
X157506066Y-83944934D01*
X157515952Y-83955841D01*
X157524720Y-83967664D01*
X157532288Y-83980290D01*
X157538582Y-83993597D01*
X157543541Y-84007457D01*
X157547118Y-84021736D01*
X157549278Y-84036297D01*
X157550000Y-84051000D01*
X157550000Y-84351000D01*
X157549278Y-84365703D01*
X157547118Y-84380264D01*
X157543541Y-84394543D01*
X157538582Y-84408403D01*
X157532288Y-84421710D01*
X157524720Y-84434336D01*
X157515952Y-84446159D01*
X157506066Y-84457066D01*
X157495159Y-84466952D01*
X157483336Y-84475720D01*
X157470710Y-84483288D01*
X157457403Y-84489582D01*
X157443543Y-84494541D01*
X157429264Y-84498118D01*
X157414703Y-84500278D01*
X157400000Y-84501000D01*
X155950000Y-84501000D01*
X155935297Y-84500278D01*
X155920736Y-84498118D01*
X155906457Y-84494541D01*
X155892597Y-84489582D01*
X155879290Y-84483288D01*
X155866664Y-84475720D01*
X155854841Y-84466952D01*
X155843934Y-84457066D01*
X155834048Y-84446159D01*
X155825280Y-84434336D01*
X155817712Y-84421710D01*
X155811418Y-84408403D01*
X155806459Y-84394543D01*
X155802882Y-84380264D01*
X155800722Y-84365703D01*
X155800000Y-84351000D01*
X155800000Y-84051000D01*
X155800722Y-84036297D01*
X155802882Y-84021736D01*
X155806459Y-84007457D01*
X155811418Y-83993597D01*
X155817712Y-83980290D01*
X155825280Y-83967664D01*
X155834048Y-83955841D01*
X155843934Y-83944934D01*
X155854841Y-83935048D01*
X155866664Y-83926280D01*
X155879290Y-83918712D01*
X155892597Y-83912418D01*
X155906457Y-83907459D01*
X155920736Y-83903882D01*
X155935297Y-83901722D01*
X155950000Y-83901000D01*
X157400000Y-83901000D01*
X157414703Y-83901722D01*
X157414703Y-83901722D01*
G37*
D11*
X156675000Y-84201000D03*
D10*
G36*
X157414703Y-85171722D02*
G01*
X157429264Y-85173882D01*
X157443543Y-85177459D01*
X157457403Y-85182418D01*
X157470710Y-85188712D01*
X157483336Y-85196280D01*
X157495159Y-85205048D01*
X157506066Y-85214934D01*
X157515952Y-85225841D01*
X157524720Y-85237664D01*
X157532288Y-85250290D01*
X157538582Y-85263597D01*
X157543541Y-85277457D01*
X157547118Y-85291736D01*
X157549278Y-85306297D01*
X157550000Y-85321000D01*
X157550000Y-85621000D01*
X157549278Y-85635703D01*
X157547118Y-85650264D01*
X157543541Y-85664543D01*
X157538582Y-85678403D01*
X157532288Y-85691710D01*
X157524720Y-85704336D01*
X157515952Y-85716159D01*
X157506066Y-85727066D01*
X157495159Y-85736952D01*
X157483336Y-85745720D01*
X157470710Y-85753288D01*
X157457403Y-85759582D01*
X157443543Y-85764541D01*
X157429264Y-85768118D01*
X157414703Y-85770278D01*
X157400000Y-85771000D01*
X155950000Y-85771000D01*
X155935297Y-85770278D01*
X155920736Y-85768118D01*
X155906457Y-85764541D01*
X155892597Y-85759582D01*
X155879290Y-85753288D01*
X155866664Y-85745720D01*
X155854841Y-85736952D01*
X155843934Y-85727066D01*
X155834048Y-85716159D01*
X155825280Y-85704336D01*
X155817712Y-85691710D01*
X155811418Y-85678403D01*
X155806459Y-85664543D01*
X155802882Y-85650264D01*
X155800722Y-85635703D01*
X155800000Y-85621000D01*
X155800000Y-85321000D01*
X155800722Y-85306297D01*
X155802882Y-85291736D01*
X155806459Y-85277457D01*
X155811418Y-85263597D01*
X155817712Y-85250290D01*
X155825280Y-85237664D01*
X155834048Y-85225841D01*
X155843934Y-85214934D01*
X155854841Y-85205048D01*
X155866664Y-85196280D01*
X155879290Y-85188712D01*
X155892597Y-85182418D01*
X155906457Y-85177459D01*
X155920736Y-85173882D01*
X155935297Y-85171722D01*
X155950000Y-85171000D01*
X157400000Y-85171000D01*
X157414703Y-85171722D01*
X157414703Y-85171722D01*
G37*
D11*
X156675000Y-85471000D03*
D10*
G36*
X157414703Y-86441722D02*
G01*
X157429264Y-86443882D01*
X157443543Y-86447459D01*
X157457403Y-86452418D01*
X157470710Y-86458712D01*
X157483336Y-86466280D01*
X157495159Y-86475048D01*
X157506066Y-86484934D01*
X157515952Y-86495841D01*
X157524720Y-86507664D01*
X157532288Y-86520290D01*
X157538582Y-86533597D01*
X157543541Y-86547457D01*
X157547118Y-86561736D01*
X157549278Y-86576297D01*
X157550000Y-86591000D01*
X157550000Y-86891000D01*
X157549278Y-86905703D01*
X157547118Y-86920264D01*
X157543541Y-86934543D01*
X157538582Y-86948403D01*
X157532288Y-86961710D01*
X157524720Y-86974336D01*
X157515952Y-86986159D01*
X157506066Y-86997066D01*
X157495159Y-87006952D01*
X157483336Y-87015720D01*
X157470710Y-87023288D01*
X157457403Y-87029582D01*
X157443543Y-87034541D01*
X157429264Y-87038118D01*
X157414703Y-87040278D01*
X157400000Y-87041000D01*
X155950000Y-87041000D01*
X155935297Y-87040278D01*
X155920736Y-87038118D01*
X155906457Y-87034541D01*
X155892597Y-87029582D01*
X155879290Y-87023288D01*
X155866664Y-87015720D01*
X155854841Y-87006952D01*
X155843934Y-86997066D01*
X155834048Y-86986159D01*
X155825280Y-86974336D01*
X155817712Y-86961710D01*
X155811418Y-86948403D01*
X155806459Y-86934543D01*
X155802882Y-86920264D01*
X155800722Y-86905703D01*
X155800000Y-86891000D01*
X155800000Y-86591000D01*
X155800722Y-86576297D01*
X155802882Y-86561736D01*
X155806459Y-86547457D01*
X155811418Y-86533597D01*
X155817712Y-86520290D01*
X155825280Y-86507664D01*
X155834048Y-86495841D01*
X155843934Y-86484934D01*
X155854841Y-86475048D01*
X155866664Y-86466280D01*
X155879290Y-86458712D01*
X155892597Y-86452418D01*
X155906457Y-86447459D01*
X155920736Y-86443882D01*
X155935297Y-86441722D01*
X155950000Y-86441000D01*
X157400000Y-86441000D01*
X157414703Y-86441722D01*
X157414703Y-86441722D01*
G37*
D11*
X156675000Y-86741000D03*
D10*
G36*
X157414703Y-87711722D02*
G01*
X157429264Y-87713882D01*
X157443543Y-87717459D01*
X157457403Y-87722418D01*
X157470710Y-87728712D01*
X157483336Y-87736280D01*
X157495159Y-87745048D01*
X157506066Y-87754934D01*
X157515952Y-87765841D01*
X157524720Y-87777664D01*
X157532288Y-87790290D01*
X157538582Y-87803597D01*
X157543541Y-87817457D01*
X157547118Y-87831736D01*
X157549278Y-87846297D01*
X157550000Y-87861000D01*
X157550000Y-88161000D01*
X157549278Y-88175703D01*
X157547118Y-88190264D01*
X157543541Y-88204543D01*
X157538582Y-88218403D01*
X157532288Y-88231710D01*
X157524720Y-88244336D01*
X157515952Y-88256159D01*
X157506066Y-88267066D01*
X157495159Y-88276952D01*
X157483336Y-88285720D01*
X157470710Y-88293288D01*
X157457403Y-88299582D01*
X157443543Y-88304541D01*
X157429264Y-88308118D01*
X157414703Y-88310278D01*
X157400000Y-88311000D01*
X155950000Y-88311000D01*
X155935297Y-88310278D01*
X155920736Y-88308118D01*
X155906457Y-88304541D01*
X155892597Y-88299582D01*
X155879290Y-88293288D01*
X155866664Y-88285720D01*
X155854841Y-88276952D01*
X155843934Y-88267066D01*
X155834048Y-88256159D01*
X155825280Y-88244336D01*
X155817712Y-88231710D01*
X155811418Y-88218403D01*
X155806459Y-88204543D01*
X155802882Y-88190264D01*
X155800722Y-88175703D01*
X155800000Y-88161000D01*
X155800000Y-87861000D01*
X155800722Y-87846297D01*
X155802882Y-87831736D01*
X155806459Y-87817457D01*
X155811418Y-87803597D01*
X155817712Y-87790290D01*
X155825280Y-87777664D01*
X155834048Y-87765841D01*
X155843934Y-87754934D01*
X155854841Y-87745048D01*
X155866664Y-87736280D01*
X155879290Y-87728712D01*
X155892597Y-87722418D01*
X155906457Y-87717459D01*
X155920736Y-87713882D01*
X155935297Y-87711722D01*
X155950000Y-87711000D01*
X157400000Y-87711000D01*
X157414703Y-87711722D01*
X157414703Y-87711722D01*
G37*
D11*
X156675000Y-88011000D03*
D12*
X173250000Y-97950000D03*
X171350000Y-97950000D03*
X171350000Y-95250000D03*
X172300000Y-95250000D03*
X173250000Y-95250000D03*
D13*
X151775000Y-105400000D03*
X143800000Y-105400000D03*
D10*
G36*
X154724505Y-106901204D02*
G01*
X154748773Y-106904804D01*
X154772572Y-106910765D01*
X154795671Y-106919030D01*
X154817850Y-106929520D01*
X154838893Y-106942132D01*
X154858599Y-106956747D01*
X154876777Y-106973223D01*
X154893253Y-106991401D01*
X154907868Y-107011107D01*
X154920480Y-107032150D01*
X154930970Y-107054329D01*
X154939235Y-107077428D01*
X154945196Y-107101227D01*
X154948796Y-107125495D01*
X154950000Y-107149999D01*
X154950000Y-108050001D01*
X154948796Y-108074505D01*
X154945196Y-108098773D01*
X154939235Y-108122572D01*
X154930970Y-108145671D01*
X154920480Y-108167850D01*
X154907868Y-108188893D01*
X154893253Y-108208599D01*
X154876777Y-108226777D01*
X154858599Y-108243253D01*
X154838893Y-108257868D01*
X154817850Y-108270480D01*
X154795671Y-108280970D01*
X154772572Y-108289235D01*
X154748773Y-108295196D01*
X154724505Y-108298796D01*
X154700001Y-108300000D01*
X154049999Y-108300000D01*
X154025495Y-108298796D01*
X154001227Y-108295196D01*
X153977428Y-108289235D01*
X153954329Y-108280970D01*
X153932150Y-108270480D01*
X153911107Y-108257868D01*
X153891401Y-108243253D01*
X153873223Y-108226777D01*
X153856747Y-108208599D01*
X153842132Y-108188893D01*
X153829520Y-108167850D01*
X153819030Y-108145671D01*
X153810765Y-108122572D01*
X153804804Y-108098773D01*
X153801204Y-108074505D01*
X153800000Y-108050001D01*
X153800000Y-107149999D01*
X153801204Y-107125495D01*
X153804804Y-107101227D01*
X153810765Y-107077428D01*
X153819030Y-107054329D01*
X153829520Y-107032150D01*
X153842132Y-107011107D01*
X153856747Y-106991401D01*
X153873223Y-106973223D01*
X153891401Y-106956747D01*
X153911107Y-106942132D01*
X153932150Y-106929520D01*
X153954329Y-106919030D01*
X153977428Y-106910765D01*
X154001227Y-106904804D01*
X154025495Y-106901204D01*
X154049999Y-106900000D01*
X154700001Y-106900000D01*
X154724505Y-106901204D01*
X154724505Y-106901204D01*
G37*
D14*
X154375000Y-107600000D03*
D10*
G36*
X156774505Y-106901204D02*
G01*
X156798773Y-106904804D01*
X156822572Y-106910765D01*
X156845671Y-106919030D01*
X156867850Y-106929520D01*
X156888893Y-106942132D01*
X156908599Y-106956747D01*
X156926777Y-106973223D01*
X156943253Y-106991401D01*
X156957868Y-107011107D01*
X156970480Y-107032150D01*
X156980970Y-107054329D01*
X156989235Y-107077428D01*
X156995196Y-107101227D01*
X156998796Y-107125495D01*
X157000000Y-107149999D01*
X157000000Y-108050001D01*
X156998796Y-108074505D01*
X156995196Y-108098773D01*
X156989235Y-108122572D01*
X156980970Y-108145671D01*
X156970480Y-108167850D01*
X156957868Y-108188893D01*
X156943253Y-108208599D01*
X156926777Y-108226777D01*
X156908599Y-108243253D01*
X156888893Y-108257868D01*
X156867850Y-108270480D01*
X156845671Y-108280970D01*
X156822572Y-108289235D01*
X156798773Y-108295196D01*
X156774505Y-108298796D01*
X156750001Y-108300000D01*
X156099999Y-108300000D01*
X156075495Y-108298796D01*
X156051227Y-108295196D01*
X156027428Y-108289235D01*
X156004329Y-108280970D01*
X155982150Y-108270480D01*
X155961107Y-108257868D01*
X155941401Y-108243253D01*
X155923223Y-108226777D01*
X155906747Y-108208599D01*
X155892132Y-108188893D01*
X155879520Y-108167850D01*
X155869030Y-108145671D01*
X155860765Y-108122572D01*
X155854804Y-108098773D01*
X155851204Y-108074505D01*
X155850000Y-108050001D01*
X155850000Y-107149999D01*
X155851204Y-107125495D01*
X155854804Y-107101227D01*
X155860765Y-107077428D01*
X155869030Y-107054329D01*
X155879520Y-107032150D01*
X155892132Y-107011107D01*
X155906747Y-106991401D01*
X155923223Y-106973223D01*
X155941401Y-106956747D01*
X155961107Y-106942132D01*
X155982150Y-106929520D01*
X156004329Y-106919030D01*
X156027428Y-106910765D01*
X156051227Y-106904804D01*
X156075495Y-106901204D01*
X156099999Y-106900000D01*
X156750001Y-106900000D01*
X156774505Y-106901204D01*
X156774505Y-106901204D01*
G37*
D14*
X156425000Y-107600000D03*
D10*
G36*
X174374505Y-103226204D02*
G01*
X174398773Y-103229804D01*
X174422572Y-103235765D01*
X174445671Y-103244030D01*
X174467850Y-103254520D01*
X174488893Y-103267132D01*
X174508599Y-103281747D01*
X174526777Y-103298223D01*
X174543253Y-103316401D01*
X174557868Y-103336107D01*
X174570480Y-103357150D01*
X174580970Y-103379329D01*
X174589235Y-103402428D01*
X174595196Y-103426227D01*
X174598796Y-103450495D01*
X174600000Y-103474999D01*
X174600000Y-105325001D01*
X174598796Y-105349505D01*
X174595196Y-105373773D01*
X174589235Y-105397572D01*
X174580970Y-105420671D01*
X174570480Y-105442850D01*
X174557868Y-105463893D01*
X174543253Y-105483599D01*
X174526777Y-105501777D01*
X174508599Y-105518253D01*
X174488893Y-105532868D01*
X174467850Y-105545480D01*
X174445671Y-105555970D01*
X174422572Y-105564235D01*
X174398773Y-105570196D01*
X174374505Y-105573796D01*
X174350001Y-105575000D01*
X173524999Y-105575000D01*
X173500495Y-105573796D01*
X173476227Y-105570196D01*
X173452428Y-105564235D01*
X173429329Y-105555970D01*
X173407150Y-105545480D01*
X173386107Y-105532868D01*
X173366401Y-105518253D01*
X173348223Y-105501777D01*
X173331747Y-105483599D01*
X173317132Y-105463893D01*
X173304520Y-105442850D01*
X173294030Y-105420671D01*
X173285765Y-105397572D01*
X173279804Y-105373773D01*
X173276204Y-105349505D01*
X173275000Y-105325001D01*
X173275000Y-103474999D01*
X173276204Y-103450495D01*
X173279804Y-103426227D01*
X173285765Y-103402428D01*
X173294030Y-103379329D01*
X173304520Y-103357150D01*
X173317132Y-103336107D01*
X173331747Y-103316401D01*
X173348223Y-103298223D01*
X173366401Y-103281747D01*
X173386107Y-103267132D01*
X173407150Y-103254520D01*
X173429329Y-103244030D01*
X173452428Y-103235765D01*
X173476227Y-103229804D01*
X173500495Y-103226204D01*
X173524999Y-103225000D01*
X174350001Y-103225000D01*
X174374505Y-103226204D01*
X174374505Y-103226204D01*
G37*
D15*
X173937500Y-104400000D03*
D10*
G36*
X171299505Y-103226204D02*
G01*
X171323773Y-103229804D01*
X171347572Y-103235765D01*
X171370671Y-103244030D01*
X171392850Y-103254520D01*
X171413893Y-103267132D01*
X171433599Y-103281747D01*
X171451777Y-103298223D01*
X171468253Y-103316401D01*
X171482868Y-103336107D01*
X171495480Y-103357150D01*
X171505970Y-103379329D01*
X171514235Y-103402428D01*
X171520196Y-103426227D01*
X171523796Y-103450495D01*
X171525000Y-103474999D01*
X171525000Y-105325001D01*
X171523796Y-105349505D01*
X171520196Y-105373773D01*
X171514235Y-105397572D01*
X171505970Y-105420671D01*
X171495480Y-105442850D01*
X171482868Y-105463893D01*
X171468253Y-105483599D01*
X171451777Y-105501777D01*
X171433599Y-105518253D01*
X171413893Y-105532868D01*
X171392850Y-105545480D01*
X171370671Y-105555970D01*
X171347572Y-105564235D01*
X171323773Y-105570196D01*
X171299505Y-105573796D01*
X171275001Y-105575000D01*
X170449999Y-105575000D01*
X170425495Y-105573796D01*
X170401227Y-105570196D01*
X170377428Y-105564235D01*
X170354329Y-105555970D01*
X170332150Y-105545480D01*
X170311107Y-105532868D01*
X170291401Y-105518253D01*
X170273223Y-105501777D01*
X170256747Y-105483599D01*
X170242132Y-105463893D01*
X170229520Y-105442850D01*
X170219030Y-105420671D01*
X170210765Y-105397572D01*
X170204804Y-105373773D01*
X170201204Y-105349505D01*
X170200000Y-105325001D01*
X170200000Y-103474999D01*
X170201204Y-103450495D01*
X170204804Y-103426227D01*
X170210765Y-103402428D01*
X170219030Y-103379329D01*
X170229520Y-103357150D01*
X170242132Y-103336107D01*
X170256747Y-103316401D01*
X170273223Y-103298223D01*
X170291401Y-103281747D01*
X170311107Y-103267132D01*
X170332150Y-103254520D01*
X170354329Y-103244030D01*
X170377428Y-103235765D01*
X170401227Y-103229804D01*
X170425495Y-103226204D01*
X170449999Y-103225000D01*
X171275001Y-103225000D01*
X171299505Y-103226204D01*
X171299505Y-103226204D01*
G37*
D15*
X170862500Y-104400000D03*
D10*
G36*
X178774504Y-98076204D02*
G01*
X178798773Y-98079804D01*
X178822571Y-98085765D01*
X178845671Y-98094030D01*
X178867849Y-98104520D01*
X178888893Y-98117133D01*
X178908598Y-98131747D01*
X178926777Y-98148223D01*
X178943253Y-98166402D01*
X178957867Y-98186107D01*
X178970480Y-98207151D01*
X178980970Y-98229329D01*
X178989235Y-98252429D01*
X178995196Y-98276227D01*
X178998796Y-98300496D01*
X179000000Y-98325000D01*
X179000000Y-99125000D01*
X178998796Y-99149504D01*
X178995196Y-99173773D01*
X178989235Y-99197571D01*
X178980970Y-99220671D01*
X178970480Y-99242849D01*
X178957867Y-99263893D01*
X178943253Y-99283598D01*
X178926777Y-99301777D01*
X178908598Y-99318253D01*
X178888893Y-99332867D01*
X178867849Y-99345480D01*
X178845671Y-99355970D01*
X178822571Y-99364235D01*
X178798773Y-99370196D01*
X178774504Y-99373796D01*
X178750000Y-99375000D01*
X175850000Y-99375000D01*
X175825496Y-99373796D01*
X175801227Y-99370196D01*
X175777429Y-99364235D01*
X175754329Y-99355970D01*
X175732151Y-99345480D01*
X175711107Y-99332867D01*
X175691402Y-99318253D01*
X175673223Y-99301777D01*
X175656747Y-99283598D01*
X175642133Y-99263893D01*
X175629520Y-99242849D01*
X175619030Y-99220671D01*
X175610765Y-99197571D01*
X175604804Y-99173773D01*
X175601204Y-99149504D01*
X175600000Y-99125000D01*
X175600000Y-98325000D01*
X175601204Y-98300496D01*
X175604804Y-98276227D01*
X175610765Y-98252429D01*
X175619030Y-98229329D01*
X175629520Y-98207151D01*
X175642133Y-98186107D01*
X175656747Y-98166402D01*
X175673223Y-98148223D01*
X175691402Y-98131747D01*
X175711107Y-98117133D01*
X175732151Y-98104520D01*
X175754329Y-98094030D01*
X175777429Y-98085765D01*
X175801227Y-98079804D01*
X175825496Y-98076204D01*
X175850000Y-98075000D01*
X178750000Y-98075000D01*
X178774504Y-98076204D01*
X178774504Y-98076204D01*
G37*
D16*
X177300000Y-98725000D03*
D10*
G36*
X178774504Y-93626204D02*
G01*
X178798773Y-93629804D01*
X178822571Y-93635765D01*
X178845671Y-93644030D01*
X178867849Y-93654520D01*
X178888893Y-93667133D01*
X178908598Y-93681747D01*
X178926777Y-93698223D01*
X178943253Y-93716402D01*
X178957867Y-93736107D01*
X178970480Y-93757151D01*
X178980970Y-93779329D01*
X178989235Y-93802429D01*
X178995196Y-93826227D01*
X178998796Y-93850496D01*
X179000000Y-93875000D01*
X179000000Y-94675000D01*
X178998796Y-94699504D01*
X178995196Y-94723773D01*
X178989235Y-94747571D01*
X178980970Y-94770671D01*
X178970480Y-94792849D01*
X178957867Y-94813893D01*
X178943253Y-94833598D01*
X178926777Y-94851777D01*
X178908598Y-94868253D01*
X178888893Y-94882867D01*
X178867849Y-94895480D01*
X178845671Y-94905970D01*
X178822571Y-94914235D01*
X178798773Y-94920196D01*
X178774504Y-94923796D01*
X178750000Y-94925000D01*
X175850000Y-94925000D01*
X175825496Y-94923796D01*
X175801227Y-94920196D01*
X175777429Y-94914235D01*
X175754329Y-94905970D01*
X175732151Y-94895480D01*
X175711107Y-94882867D01*
X175691402Y-94868253D01*
X175673223Y-94851777D01*
X175656747Y-94833598D01*
X175642133Y-94813893D01*
X175629520Y-94792849D01*
X175619030Y-94770671D01*
X175610765Y-94747571D01*
X175604804Y-94723773D01*
X175601204Y-94699504D01*
X175600000Y-94675000D01*
X175600000Y-93875000D01*
X175601204Y-93850496D01*
X175604804Y-93826227D01*
X175610765Y-93802429D01*
X175619030Y-93779329D01*
X175629520Y-93757151D01*
X175642133Y-93736107D01*
X175656747Y-93716402D01*
X175673223Y-93698223D01*
X175691402Y-93681747D01*
X175711107Y-93667133D01*
X175732151Y-93654520D01*
X175754329Y-93644030D01*
X175777429Y-93635765D01*
X175801227Y-93629804D01*
X175825496Y-93626204D01*
X175850000Y-93625000D01*
X178750000Y-93625000D01*
X178774504Y-93626204D01*
X178774504Y-93626204D01*
G37*
D16*
X177300000Y-94275000D03*
D10*
G36*
X167874505Y-98426204D02*
G01*
X167898773Y-98429804D01*
X167922572Y-98435765D01*
X167945671Y-98444030D01*
X167967850Y-98454520D01*
X167988893Y-98467132D01*
X168008599Y-98481747D01*
X168026777Y-98498223D01*
X168043253Y-98516401D01*
X168057868Y-98536107D01*
X168070480Y-98557150D01*
X168080970Y-98579329D01*
X168089235Y-98602428D01*
X168095196Y-98626227D01*
X168098796Y-98650495D01*
X168100000Y-98674999D01*
X168100000Y-99325001D01*
X168098796Y-99349505D01*
X168095196Y-99373773D01*
X168089235Y-99397572D01*
X168080970Y-99420671D01*
X168070480Y-99442850D01*
X168057868Y-99463893D01*
X168043253Y-99483599D01*
X168026777Y-99501777D01*
X168008599Y-99518253D01*
X167988893Y-99532868D01*
X167967850Y-99545480D01*
X167945671Y-99555970D01*
X167922572Y-99564235D01*
X167898773Y-99570196D01*
X167874505Y-99573796D01*
X167850001Y-99575000D01*
X166949999Y-99575000D01*
X166925495Y-99573796D01*
X166901227Y-99570196D01*
X166877428Y-99564235D01*
X166854329Y-99555970D01*
X166832150Y-99545480D01*
X166811107Y-99532868D01*
X166791401Y-99518253D01*
X166773223Y-99501777D01*
X166756747Y-99483599D01*
X166742132Y-99463893D01*
X166729520Y-99442850D01*
X166719030Y-99420671D01*
X166710765Y-99397572D01*
X166704804Y-99373773D01*
X166701204Y-99349505D01*
X166700000Y-99325001D01*
X166700000Y-98674999D01*
X166701204Y-98650495D01*
X166704804Y-98626227D01*
X166710765Y-98602428D01*
X166719030Y-98579329D01*
X166729520Y-98557150D01*
X166742132Y-98536107D01*
X166756747Y-98516401D01*
X166773223Y-98498223D01*
X166791401Y-98481747D01*
X166811107Y-98467132D01*
X166832150Y-98454520D01*
X166854329Y-98444030D01*
X166877428Y-98435765D01*
X166901227Y-98429804D01*
X166925495Y-98426204D01*
X166949999Y-98425000D01*
X167850001Y-98425000D01*
X167874505Y-98426204D01*
X167874505Y-98426204D01*
G37*
D14*
X167400000Y-99000000D03*
D10*
G36*
X167874505Y-100476204D02*
G01*
X167898773Y-100479804D01*
X167922572Y-100485765D01*
X167945671Y-100494030D01*
X167967850Y-100504520D01*
X167988893Y-100517132D01*
X168008599Y-100531747D01*
X168026777Y-100548223D01*
X168043253Y-100566401D01*
X168057868Y-100586107D01*
X168070480Y-100607150D01*
X168080970Y-100629329D01*
X168089235Y-100652428D01*
X168095196Y-100676227D01*
X168098796Y-100700495D01*
X168100000Y-100724999D01*
X168100000Y-101375001D01*
X168098796Y-101399505D01*
X168095196Y-101423773D01*
X168089235Y-101447572D01*
X168080970Y-101470671D01*
X168070480Y-101492850D01*
X168057868Y-101513893D01*
X168043253Y-101533599D01*
X168026777Y-101551777D01*
X168008599Y-101568253D01*
X167988893Y-101582868D01*
X167967850Y-101595480D01*
X167945671Y-101605970D01*
X167922572Y-101614235D01*
X167898773Y-101620196D01*
X167874505Y-101623796D01*
X167850001Y-101625000D01*
X166949999Y-101625000D01*
X166925495Y-101623796D01*
X166901227Y-101620196D01*
X166877428Y-101614235D01*
X166854329Y-101605970D01*
X166832150Y-101595480D01*
X166811107Y-101582868D01*
X166791401Y-101568253D01*
X166773223Y-101551777D01*
X166756747Y-101533599D01*
X166742132Y-101513893D01*
X166729520Y-101492850D01*
X166719030Y-101470671D01*
X166710765Y-101447572D01*
X166704804Y-101423773D01*
X166701204Y-101399505D01*
X166700000Y-101375001D01*
X166700000Y-100724999D01*
X166701204Y-100700495D01*
X166704804Y-100676227D01*
X166710765Y-100652428D01*
X166719030Y-100629329D01*
X166729520Y-100607150D01*
X166742132Y-100586107D01*
X166756747Y-100566401D01*
X166773223Y-100548223D01*
X166791401Y-100531747D01*
X166811107Y-100517132D01*
X166832150Y-100504520D01*
X166854329Y-100494030D01*
X166877428Y-100485765D01*
X166901227Y-100479804D01*
X166925495Y-100476204D01*
X166949999Y-100475000D01*
X167850001Y-100475000D01*
X167874505Y-100476204D01*
X167874505Y-100476204D01*
G37*
D14*
X167400000Y-101050000D03*
D10*
G36*
X153574505Y-98401204D02*
G01*
X153598773Y-98404804D01*
X153622572Y-98410765D01*
X153645671Y-98419030D01*
X153667850Y-98429520D01*
X153688893Y-98442132D01*
X153708599Y-98456747D01*
X153726777Y-98473223D01*
X153743253Y-98491401D01*
X153757868Y-98511107D01*
X153770480Y-98532150D01*
X153780970Y-98554329D01*
X153789235Y-98577428D01*
X153795196Y-98601227D01*
X153798796Y-98625495D01*
X153800000Y-98649999D01*
X153800000Y-99300001D01*
X153798796Y-99324505D01*
X153795196Y-99348773D01*
X153789235Y-99372572D01*
X153780970Y-99395671D01*
X153770480Y-99417850D01*
X153757868Y-99438893D01*
X153743253Y-99458599D01*
X153726777Y-99476777D01*
X153708599Y-99493253D01*
X153688893Y-99507868D01*
X153667850Y-99520480D01*
X153645671Y-99530970D01*
X153622572Y-99539235D01*
X153598773Y-99545196D01*
X153574505Y-99548796D01*
X153550001Y-99550000D01*
X152649999Y-99550000D01*
X152625495Y-99548796D01*
X152601227Y-99545196D01*
X152577428Y-99539235D01*
X152554329Y-99530970D01*
X152532150Y-99520480D01*
X152511107Y-99507868D01*
X152491401Y-99493253D01*
X152473223Y-99476777D01*
X152456747Y-99458599D01*
X152442132Y-99438893D01*
X152429520Y-99417850D01*
X152419030Y-99395671D01*
X152410765Y-99372572D01*
X152404804Y-99348773D01*
X152401204Y-99324505D01*
X152400000Y-99300001D01*
X152400000Y-98649999D01*
X152401204Y-98625495D01*
X152404804Y-98601227D01*
X152410765Y-98577428D01*
X152419030Y-98554329D01*
X152429520Y-98532150D01*
X152442132Y-98511107D01*
X152456747Y-98491401D01*
X152473223Y-98473223D01*
X152491401Y-98456747D01*
X152511107Y-98442132D01*
X152532150Y-98429520D01*
X152554329Y-98419030D01*
X152577428Y-98410765D01*
X152601227Y-98404804D01*
X152625495Y-98401204D01*
X152649999Y-98400000D01*
X153550001Y-98400000D01*
X153574505Y-98401204D01*
X153574505Y-98401204D01*
G37*
D14*
X153100000Y-98975000D03*
D10*
G36*
X153574505Y-100451204D02*
G01*
X153598773Y-100454804D01*
X153622572Y-100460765D01*
X153645671Y-100469030D01*
X153667850Y-100479520D01*
X153688893Y-100492132D01*
X153708599Y-100506747D01*
X153726777Y-100523223D01*
X153743253Y-100541401D01*
X153757868Y-100561107D01*
X153770480Y-100582150D01*
X153780970Y-100604329D01*
X153789235Y-100627428D01*
X153795196Y-100651227D01*
X153798796Y-100675495D01*
X153800000Y-100699999D01*
X153800000Y-101350001D01*
X153798796Y-101374505D01*
X153795196Y-101398773D01*
X153789235Y-101422572D01*
X153780970Y-101445671D01*
X153770480Y-101467850D01*
X153757868Y-101488893D01*
X153743253Y-101508599D01*
X153726777Y-101526777D01*
X153708599Y-101543253D01*
X153688893Y-101557868D01*
X153667850Y-101570480D01*
X153645671Y-101580970D01*
X153622572Y-101589235D01*
X153598773Y-101595196D01*
X153574505Y-101598796D01*
X153550001Y-101600000D01*
X152649999Y-101600000D01*
X152625495Y-101598796D01*
X152601227Y-101595196D01*
X152577428Y-101589235D01*
X152554329Y-101580970D01*
X152532150Y-101570480D01*
X152511107Y-101557868D01*
X152491401Y-101543253D01*
X152473223Y-101526777D01*
X152456747Y-101508599D01*
X152442132Y-101488893D01*
X152429520Y-101467850D01*
X152419030Y-101445671D01*
X152410765Y-101422572D01*
X152404804Y-101398773D01*
X152401204Y-101374505D01*
X152400000Y-101350001D01*
X152400000Y-100699999D01*
X152401204Y-100675495D01*
X152404804Y-100651227D01*
X152410765Y-100627428D01*
X152419030Y-100604329D01*
X152429520Y-100582150D01*
X152442132Y-100561107D01*
X152456747Y-100541401D01*
X152473223Y-100523223D01*
X152491401Y-100506747D01*
X152511107Y-100492132D01*
X152532150Y-100479520D01*
X152554329Y-100469030D01*
X152577428Y-100460765D01*
X152601227Y-100454804D01*
X152625495Y-100451204D01*
X152649999Y-100450000D01*
X153550001Y-100450000D01*
X153574505Y-100451204D01*
X153574505Y-100451204D01*
G37*
D14*
X153100000Y-101025000D03*
D17*
X157202000Y-95910000D03*
X158002000Y-95910000D03*
X158802000Y-95910000D03*
X159602000Y-95910000D03*
X160402000Y-95910000D03*
X161202000Y-95910000D03*
X162002000Y-95910000D03*
X162802000Y-95910000D03*
D18*
X164252000Y-97360000D03*
X164252000Y-98160000D03*
X164252000Y-98960000D03*
X164252000Y-99760000D03*
X164252000Y-100560000D03*
X164252000Y-101360000D03*
X164252000Y-102160000D03*
X164252000Y-102960000D03*
D17*
X162802000Y-104410000D03*
X162002000Y-104410000D03*
X161202000Y-104410000D03*
X160402000Y-104410000D03*
X159602000Y-104410000D03*
X158802000Y-104410000D03*
X158002000Y-104410000D03*
X157202000Y-104410000D03*
D18*
X155752000Y-102960000D03*
X155752000Y-102160000D03*
X155752000Y-101360000D03*
X155752000Y-100560000D03*
X155752000Y-99760000D03*
X155752000Y-98960000D03*
X155752000Y-98160000D03*
X155752000Y-97360000D03*
D19*
X151560000Y-80860000D03*
X156640000Y-80830000D03*
X170710000Y-80860000D03*
X165630000Y-80860000D03*
D10*
G36*
X150924505Y-95101204D02*
G01*
X150948773Y-95104804D01*
X150972572Y-95110765D01*
X150995671Y-95119030D01*
X151017850Y-95129520D01*
X151038893Y-95142132D01*
X151058599Y-95156747D01*
X151076777Y-95173223D01*
X151093253Y-95191401D01*
X151107868Y-95211107D01*
X151120480Y-95232150D01*
X151130970Y-95254329D01*
X151139235Y-95277428D01*
X151145196Y-95301227D01*
X151148796Y-95325495D01*
X151150000Y-95349999D01*
X151150000Y-96250001D01*
X151148796Y-96274505D01*
X151145196Y-96298773D01*
X151139235Y-96322572D01*
X151130970Y-96345671D01*
X151120480Y-96367850D01*
X151107868Y-96388893D01*
X151093253Y-96408599D01*
X151076777Y-96426777D01*
X151058599Y-96443253D01*
X151038893Y-96457868D01*
X151017850Y-96470480D01*
X150995671Y-96480970D01*
X150972572Y-96489235D01*
X150948773Y-96495196D01*
X150924505Y-96498796D01*
X150900001Y-96500000D01*
X150249999Y-96500000D01*
X150225495Y-96498796D01*
X150201227Y-96495196D01*
X150177428Y-96489235D01*
X150154329Y-96480970D01*
X150132150Y-96470480D01*
X150111107Y-96457868D01*
X150091401Y-96443253D01*
X150073223Y-96426777D01*
X150056747Y-96408599D01*
X150042132Y-96388893D01*
X150029520Y-96367850D01*
X150019030Y-96345671D01*
X150010765Y-96322572D01*
X150004804Y-96298773D01*
X150001204Y-96274505D01*
X150000000Y-96250001D01*
X150000000Y-95349999D01*
X150001204Y-95325495D01*
X150004804Y-95301227D01*
X150010765Y-95277428D01*
X150019030Y-95254329D01*
X150029520Y-95232150D01*
X150042132Y-95211107D01*
X150056747Y-95191401D01*
X150073223Y-95173223D01*
X150091401Y-95156747D01*
X150111107Y-95142132D01*
X150132150Y-95129520D01*
X150154329Y-95119030D01*
X150177428Y-95110765D01*
X150201227Y-95104804D01*
X150225495Y-95101204D01*
X150249999Y-95100000D01*
X150900001Y-95100000D01*
X150924505Y-95101204D01*
X150924505Y-95101204D01*
G37*
D14*
X150575000Y-95800000D03*
D10*
G36*
X152974505Y-95101204D02*
G01*
X152998773Y-95104804D01*
X153022572Y-95110765D01*
X153045671Y-95119030D01*
X153067850Y-95129520D01*
X153088893Y-95142132D01*
X153108599Y-95156747D01*
X153126777Y-95173223D01*
X153143253Y-95191401D01*
X153157868Y-95211107D01*
X153170480Y-95232150D01*
X153180970Y-95254329D01*
X153189235Y-95277428D01*
X153195196Y-95301227D01*
X153198796Y-95325495D01*
X153200000Y-95349999D01*
X153200000Y-96250001D01*
X153198796Y-96274505D01*
X153195196Y-96298773D01*
X153189235Y-96322572D01*
X153180970Y-96345671D01*
X153170480Y-96367850D01*
X153157868Y-96388893D01*
X153143253Y-96408599D01*
X153126777Y-96426777D01*
X153108599Y-96443253D01*
X153088893Y-96457868D01*
X153067850Y-96470480D01*
X153045671Y-96480970D01*
X153022572Y-96489235D01*
X152998773Y-96495196D01*
X152974505Y-96498796D01*
X152950001Y-96500000D01*
X152299999Y-96500000D01*
X152275495Y-96498796D01*
X152251227Y-96495196D01*
X152227428Y-96489235D01*
X152204329Y-96480970D01*
X152182150Y-96470480D01*
X152161107Y-96457868D01*
X152141401Y-96443253D01*
X152123223Y-96426777D01*
X152106747Y-96408599D01*
X152092132Y-96388893D01*
X152079520Y-96367850D01*
X152069030Y-96345671D01*
X152060765Y-96322572D01*
X152054804Y-96298773D01*
X152051204Y-96274505D01*
X152050000Y-96250001D01*
X152050000Y-95349999D01*
X152051204Y-95325495D01*
X152054804Y-95301227D01*
X152060765Y-95277428D01*
X152069030Y-95254329D01*
X152079520Y-95232150D01*
X152092132Y-95211107D01*
X152106747Y-95191401D01*
X152123223Y-95173223D01*
X152141401Y-95156747D01*
X152161107Y-95142132D01*
X152182150Y-95129520D01*
X152204329Y-95119030D01*
X152227428Y-95110765D01*
X152251227Y-95104804D01*
X152275495Y-95101204D01*
X152299999Y-95100000D01*
X152950001Y-95100000D01*
X152974505Y-95101204D01*
X152974505Y-95101204D01*
G37*
D14*
X152625000Y-95800000D03*
D10*
G36*
X150874505Y-97501204D02*
G01*
X150898773Y-97504804D01*
X150922572Y-97510765D01*
X150945671Y-97519030D01*
X150967850Y-97529520D01*
X150988893Y-97542132D01*
X151008599Y-97556747D01*
X151026777Y-97573223D01*
X151043253Y-97591401D01*
X151057868Y-97611107D01*
X151070480Y-97632150D01*
X151080970Y-97654329D01*
X151089235Y-97677428D01*
X151095196Y-97701227D01*
X151098796Y-97725495D01*
X151100000Y-97749999D01*
X151100000Y-98650001D01*
X151098796Y-98674505D01*
X151095196Y-98698773D01*
X151089235Y-98722572D01*
X151080970Y-98745671D01*
X151070480Y-98767850D01*
X151057868Y-98788893D01*
X151043253Y-98808599D01*
X151026777Y-98826777D01*
X151008599Y-98843253D01*
X150988893Y-98857868D01*
X150967850Y-98870480D01*
X150945671Y-98880970D01*
X150922572Y-98889235D01*
X150898773Y-98895196D01*
X150874505Y-98898796D01*
X150850001Y-98900000D01*
X150199999Y-98900000D01*
X150175495Y-98898796D01*
X150151227Y-98895196D01*
X150127428Y-98889235D01*
X150104329Y-98880970D01*
X150082150Y-98870480D01*
X150061107Y-98857868D01*
X150041401Y-98843253D01*
X150023223Y-98826777D01*
X150006747Y-98808599D01*
X149992132Y-98788893D01*
X149979520Y-98767850D01*
X149969030Y-98745671D01*
X149960765Y-98722572D01*
X149954804Y-98698773D01*
X149951204Y-98674505D01*
X149950000Y-98650001D01*
X149950000Y-97749999D01*
X149951204Y-97725495D01*
X149954804Y-97701227D01*
X149960765Y-97677428D01*
X149969030Y-97654329D01*
X149979520Y-97632150D01*
X149992132Y-97611107D01*
X150006747Y-97591401D01*
X150023223Y-97573223D01*
X150041401Y-97556747D01*
X150061107Y-97542132D01*
X150082150Y-97529520D01*
X150104329Y-97519030D01*
X150127428Y-97510765D01*
X150151227Y-97504804D01*
X150175495Y-97501204D01*
X150199999Y-97500000D01*
X150850001Y-97500000D01*
X150874505Y-97501204D01*
X150874505Y-97501204D01*
G37*
D14*
X150525000Y-98200000D03*
D10*
G36*
X148824505Y-97501204D02*
G01*
X148848773Y-97504804D01*
X148872572Y-97510765D01*
X148895671Y-97519030D01*
X148917850Y-97529520D01*
X148938893Y-97542132D01*
X148958599Y-97556747D01*
X148976777Y-97573223D01*
X148993253Y-97591401D01*
X149007868Y-97611107D01*
X149020480Y-97632150D01*
X149030970Y-97654329D01*
X149039235Y-97677428D01*
X149045196Y-97701227D01*
X149048796Y-97725495D01*
X149050000Y-97749999D01*
X149050000Y-98650001D01*
X149048796Y-98674505D01*
X149045196Y-98698773D01*
X149039235Y-98722572D01*
X149030970Y-98745671D01*
X149020480Y-98767850D01*
X149007868Y-98788893D01*
X148993253Y-98808599D01*
X148976777Y-98826777D01*
X148958599Y-98843253D01*
X148938893Y-98857868D01*
X148917850Y-98870480D01*
X148895671Y-98880970D01*
X148872572Y-98889235D01*
X148848773Y-98895196D01*
X148824505Y-98898796D01*
X148800001Y-98900000D01*
X148149999Y-98900000D01*
X148125495Y-98898796D01*
X148101227Y-98895196D01*
X148077428Y-98889235D01*
X148054329Y-98880970D01*
X148032150Y-98870480D01*
X148011107Y-98857868D01*
X147991401Y-98843253D01*
X147973223Y-98826777D01*
X147956747Y-98808599D01*
X147942132Y-98788893D01*
X147929520Y-98767850D01*
X147919030Y-98745671D01*
X147910765Y-98722572D01*
X147904804Y-98698773D01*
X147901204Y-98674505D01*
X147900000Y-98650001D01*
X147900000Y-97749999D01*
X147901204Y-97725495D01*
X147904804Y-97701227D01*
X147910765Y-97677428D01*
X147919030Y-97654329D01*
X147929520Y-97632150D01*
X147942132Y-97611107D01*
X147956747Y-97591401D01*
X147973223Y-97573223D01*
X147991401Y-97556747D01*
X148011107Y-97542132D01*
X148032150Y-97529520D01*
X148054329Y-97519030D01*
X148077428Y-97510765D01*
X148101227Y-97504804D01*
X148125495Y-97501204D01*
X148149999Y-97500000D01*
X148800001Y-97500000D01*
X148824505Y-97501204D01*
X148824505Y-97501204D01*
G37*
D14*
X148475000Y-98200000D03*
D10*
G36*
X152034505Y-81311204D02*
G01*
X152058773Y-81314804D01*
X152082572Y-81320765D01*
X152105671Y-81329030D01*
X152127850Y-81339520D01*
X152148893Y-81352132D01*
X152168599Y-81366747D01*
X152186777Y-81383223D01*
X152203253Y-81401401D01*
X152217868Y-81421107D01*
X152230480Y-81442150D01*
X152240970Y-81464329D01*
X152249235Y-81487428D01*
X152255196Y-81511227D01*
X152258796Y-81535495D01*
X152260000Y-81559999D01*
X152260000Y-82210001D01*
X152258796Y-82234505D01*
X152255196Y-82258773D01*
X152249235Y-82282572D01*
X152240970Y-82305671D01*
X152230480Y-82327850D01*
X152217868Y-82348893D01*
X152203253Y-82368599D01*
X152186777Y-82386777D01*
X152168599Y-82403253D01*
X152148893Y-82417868D01*
X152127850Y-82430480D01*
X152105671Y-82440970D01*
X152082572Y-82449235D01*
X152058773Y-82455196D01*
X152034505Y-82458796D01*
X152010001Y-82460000D01*
X151109999Y-82460000D01*
X151085495Y-82458796D01*
X151061227Y-82455196D01*
X151037428Y-82449235D01*
X151014329Y-82440970D01*
X150992150Y-82430480D01*
X150971107Y-82417868D01*
X150951401Y-82403253D01*
X150933223Y-82386777D01*
X150916747Y-82368599D01*
X150902132Y-82348893D01*
X150889520Y-82327850D01*
X150879030Y-82305671D01*
X150870765Y-82282572D01*
X150864804Y-82258773D01*
X150861204Y-82234505D01*
X150860000Y-82210001D01*
X150860000Y-81559999D01*
X150861204Y-81535495D01*
X150864804Y-81511227D01*
X150870765Y-81487428D01*
X150879030Y-81464329D01*
X150889520Y-81442150D01*
X150902132Y-81421107D01*
X150916747Y-81401401D01*
X150933223Y-81383223D01*
X150951401Y-81366747D01*
X150971107Y-81352132D01*
X150992150Y-81339520D01*
X151014329Y-81329030D01*
X151037428Y-81320765D01*
X151061227Y-81314804D01*
X151085495Y-81311204D01*
X151109999Y-81310000D01*
X152010001Y-81310000D01*
X152034505Y-81311204D01*
X152034505Y-81311204D01*
G37*
D14*
X151560000Y-81885000D03*
D10*
G36*
X152034505Y-79261204D02*
G01*
X152058773Y-79264804D01*
X152082572Y-79270765D01*
X152105671Y-79279030D01*
X152127850Y-79289520D01*
X152148893Y-79302132D01*
X152168599Y-79316747D01*
X152186777Y-79333223D01*
X152203253Y-79351401D01*
X152217868Y-79371107D01*
X152230480Y-79392150D01*
X152240970Y-79414329D01*
X152249235Y-79437428D01*
X152255196Y-79461227D01*
X152258796Y-79485495D01*
X152260000Y-79509999D01*
X152260000Y-80160001D01*
X152258796Y-80184505D01*
X152255196Y-80208773D01*
X152249235Y-80232572D01*
X152240970Y-80255671D01*
X152230480Y-80277850D01*
X152217868Y-80298893D01*
X152203253Y-80318599D01*
X152186777Y-80336777D01*
X152168599Y-80353253D01*
X152148893Y-80367868D01*
X152127850Y-80380480D01*
X152105671Y-80390970D01*
X152082572Y-80399235D01*
X152058773Y-80405196D01*
X152034505Y-80408796D01*
X152010001Y-80410000D01*
X151109999Y-80410000D01*
X151085495Y-80408796D01*
X151061227Y-80405196D01*
X151037428Y-80399235D01*
X151014329Y-80390970D01*
X150992150Y-80380480D01*
X150971107Y-80367868D01*
X150951401Y-80353253D01*
X150933223Y-80336777D01*
X150916747Y-80318599D01*
X150902132Y-80298893D01*
X150889520Y-80277850D01*
X150879030Y-80255671D01*
X150870765Y-80232572D01*
X150864804Y-80208773D01*
X150861204Y-80184505D01*
X150860000Y-80160001D01*
X150860000Y-79509999D01*
X150861204Y-79485495D01*
X150864804Y-79461227D01*
X150870765Y-79437428D01*
X150879030Y-79414329D01*
X150889520Y-79392150D01*
X150902132Y-79371107D01*
X150916747Y-79351401D01*
X150933223Y-79333223D01*
X150951401Y-79316747D01*
X150971107Y-79302132D01*
X150992150Y-79289520D01*
X151014329Y-79279030D01*
X151037428Y-79270765D01*
X151061227Y-79264804D01*
X151085495Y-79261204D01*
X151109999Y-79260000D01*
X152010001Y-79260000D01*
X152034505Y-79261204D01*
X152034505Y-79261204D01*
G37*
D14*
X151560000Y-79835000D03*
D10*
G36*
X157114505Y-81281204D02*
G01*
X157138773Y-81284804D01*
X157162572Y-81290765D01*
X157185671Y-81299030D01*
X157207850Y-81309520D01*
X157228893Y-81322132D01*
X157248599Y-81336747D01*
X157266777Y-81353223D01*
X157283253Y-81371401D01*
X157297868Y-81391107D01*
X157310480Y-81412150D01*
X157320970Y-81434329D01*
X157329235Y-81457428D01*
X157335196Y-81481227D01*
X157338796Y-81505495D01*
X157340000Y-81529999D01*
X157340000Y-82180001D01*
X157338796Y-82204505D01*
X157335196Y-82228773D01*
X157329235Y-82252572D01*
X157320970Y-82275671D01*
X157310480Y-82297850D01*
X157297868Y-82318893D01*
X157283253Y-82338599D01*
X157266777Y-82356777D01*
X157248599Y-82373253D01*
X157228893Y-82387868D01*
X157207850Y-82400480D01*
X157185671Y-82410970D01*
X157162572Y-82419235D01*
X157138773Y-82425196D01*
X157114505Y-82428796D01*
X157090001Y-82430000D01*
X156189999Y-82430000D01*
X156165495Y-82428796D01*
X156141227Y-82425196D01*
X156117428Y-82419235D01*
X156094329Y-82410970D01*
X156072150Y-82400480D01*
X156051107Y-82387868D01*
X156031401Y-82373253D01*
X156013223Y-82356777D01*
X155996747Y-82338599D01*
X155982132Y-82318893D01*
X155969520Y-82297850D01*
X155959030Y-82275671D01*
X155950765Y-82252572D01*
X155944804Y-82228773D01*
X155941204Y-82204505D01*
X155940000Y-82180001D01*
X155940000Y-81529999D01*
X155941204Y-81505495D01*
X155944804Y-81481227D01*
X155950765Y-81457428D01*
X155959030Y-81434329D01*
X155969520Y-81412150D01*
X155982132Y-81391107D01*
X155996747Y-81371401D01*
X156013223Y-81353223D01*
X156031401Y-81336747D01*
X156051107Y-81322132D01*
X156072150Y-81309520D01*
X156094329Y-81299030D01*
X156117428Y-81290765D01*
X156141227Y-81284804D01*
X156165495Y-81281204D01*
X156189999Y-81280000D01*
X157090001Y-81280000D01*
X157114505Y-81281204D01*
X157114505Y-81281204D01*
G37*
D14*
X156640000Y-81855000D03*
D10*
G36*
X157114505Y-79231204D02*
G01*
X157138773Y-79234804D01*
X157162572Y-79240765D01*
X157185671Y-79249030D01*
X157207850Y-79259520D01*
X157228893Y-79272132D01*
X157248599Y-79286747D01*
X157266777Y-79303223D01*
X157283253Y-79321401D01*
X157297868Y-79341107D01*
X157310480Y-79362150D01*
X157320970Y-79384329D01*
X157329235Y-79407428D01*
X157335196Y-79431227D01*
X157338796Y-79455495D01*
X157340000Y-79479999D01*
X157340000Y-80130001D01*
X157338796Y-80154505D01*
X157335196Y-80178773D01*
X157329235Y-80202572D01*
X157320970Y-80225671D01*
X157310480Y-80247850D01*
X157297868Y-80268893D01*
X157283253Y-80288599D01*
X157266777Y-80306777D01*
X157248599Y-80323253D01*
X157228893Y-80337868D01*
X157207850Y-80350480D01*
X157185671Y-80360970D01*
X157162572Y-80369235D01*
X157138773Y-80375196D01*
X157114505Y-80378796D01*
X157090001Y-80380000D01*
X156189999Y-80380000D01*
X156165495Y-80378796D01*
X156141227Y-80375196D01*
X156117428Y-80369235D01*
X156094329Y-80360970D01*
X156072150Y-80350480D01*
X156051107Y-80337868D01*
X156031401Y-80323253D01*
X156013223Y-80306777D01*
X155996747Y-80288599D01*
X155982132Y-80268893D01*
X155969520Y-80247850D01*
X155959030Y-80225671D01*
X155950765Y-80202572D01*
X155944804Y-80178773D01*
X155941204Y-80154505D01*
X155940000Y-80130001D01*
X155940000Y-79479999D01*
X155941204Y-79455495D01*
X155944804Y-79431227D01*
X155950765Y-79407428D01*
X155959030Y-79384329D01*
X155969520Y-79362150D01*
X155982132Y-79341107D01*
X155996747Y-79321401D01*
X156013223Y-79303223D01*
X156031401Y-79286747D01*
X156051107Y-79272132D01*
X156072150Y-79259520D01*
X156094329Y-79249030D01*
X156117428Y-79240765D01*
X156141227Y-79234804D01*
X156165495Y-79231204D01*
X156189999Y-79230000D01*
X157090001Y-79230000D01*
X157114505Y-79231204D01*
X157114505Y-79231204D01*
G37*
D14*
X156640000Y-79805000D03*
D10*
G36*
X166104505Y-81311204D02*
G01*
X166128773Y-81314804D01*
X166152572Y-81320765D01*
X166175671Y-81329030D01*
X166197850Y-81339520D01*
X166218893Y-81352132D01*
X166238599Y-81366747D01*
X166256777Y-81383223D01*
X166273253Y-81401401D01*
X166287868Y-81421107D01*
X166300480Y-81442150D01*
X166310970Y-81464329D01*
X166319235Y-81487428D01*
X166325196Y-81511227D01*
X166328796Y-81535495D01*
X166330000Y-81559999D01*
X166330000Y-82210001D01*
X166328796Y-82234505D01*
X166325196Y-82258773D01*
X166319235Y-82282572D01*
X166310970Y-82305671D01*
X166300480Y-82327850D01*
X166287868Y-82348893D01*
X166273253Y-82368599D01*
X166256777Y-82386777D01*
X166238599Y-82403253D01*
X166218893Y-82417868D01*
X166197850Y-82430480D01*
X166175671Y-82440970D01*
X166152572Y-82449235D01*
X166128773Y-82455196D01*
X166104505Y-82458796D01*
X166080001Y-82460000D01*
X165179999Y-82460000D01*
X165155495Y-82458796D01*
X165131227Y-82455196D01*
X165107428Y-82449235D01*
X165084329Y-82440970D01*
X165062150Y-82430480D01*
X165041107Y-82417868D01*
X165021401Y-82403253D01*
X165003223Y-82386777D01*
X164986747Y-82368599D01*
X164972132Y-82348893D01*
X164959520Y-82327850D01*
X164949030Y-82305671D01*
X164940765Y-82282572D01*
X164934804Y-82258773D01*
X164931204Y-82234505D01*
X164930000Y-82210001D01*
X164930000Y-81559999D01*
X164931204Y-81535495D01*
X164934804Y-81511227D01*
X164940765Y-81487428D01*
X164949030Y-81464329D01*
X164959520Y-81442150D01*
X164972132Y-81421107D01*
X164986747Y-81401401D01*
X165003223Y-81383223D01*
X165021401Y-81366747D01*
X165041107Y-81352132D01*
X165062150Y-81339520D01*
X165084329Y-81329030D01*
X165107428Y-81320765D01*
X165131227Y-81314804D01*
X165155495Y-81311204D01*
X165179999Y-81310000D01*
X166080001Y-81310000D01*
X166104505Y-81311204D01*
X166104505Y-81311204D01*
G37*
D14*
X165630000Y-81885000D03*
D10*
G36*
X166104505Y-79261204D02*
G01*
X166128773Y-79264804D01*
X166152572Y-79270765D01*
X166175671Y-79279030D01*
X166197850Y-79289520D01*
X166218893Y-79302132D01*
X166238599Y-79316747D01*
X166256777Y-79333223D01*
X166273253Y-79351401D01*
X166287868Y-79371107D01*
X166300480Y-79392150D01*
X166310970Y-79414329D01*
X166319235Y-79437428D01*
X166325196Y-79461227D01*
X166328796Y-79485495D01*
X166330000Y-79509999D01*
X166330000Y-80160001D01*
X166328796Y-80184505D01*
X166325196Y-80208773D01*
X166319235Y-80232572D01*
X166310970Y-80255671D01*
X166300480Y-80277850D01*
X166287868Y-80298893D01*
X166273253Y-80318599D01*
X166256777Y-80336777D01*
X166238599Y-80353253D01*
X166218893Y-80367868D01*
X166197850Y-80380480D01*
X166175671Y-80390970D01*
X166152572Y-80399235D01*
X166128773Y-80405196D01*
X166104505Y-80408796D01*
X166080001Y-80410000D01*
X165179999Y-80410000D01*
X165155495Y-80408796D01*
X165131227Y-80405196D01*
X165107428Y-80399235D01*
X165084329Y-80390970D01*
X165062150Y-80380480D01*
X165041107Y-80367868D01*
X165021401Y-80353253D01*
X165003223Y-80336777D01*
X164986747Y-80318599D01*
X164972132Y-80298893D01*
X164959520Y-80277850D01*
X164949030Y-80255671D01*
X164940765Y-80232572D01*
X164934804Y-80208773D01*
X164931204Y-80184505D01*
X164930000Y-80160001D01*
X164930000Y-79509999D01*
X164931204Y-79485495D01*
X164934804Y-79461227D01*
X164940765Y-79437428D01*
X164949030Y-79414329D01*
X164959520Y-79392150D01*
X164972132Y-79371107D01*
X164986747Y-79351401D01*
X165003223Y-79333223D01*
X165021401Y-79316747D01*
X165041107Y-79302132D01*
X165062150Y-79289520D01*
X165084329Y-79279030D01*
X165107428Y-79270765D01*
X165131227Y-79264804D01*
X165155495Y-79261204D01*
X165179999Y-79260000D01*
X166080001Y-79260000D01*
X166104505Y-79261204D01*
X166104505Y-79261204D01*
G37*
D14*
X165630000Y-79835000D03*
D10*
G36*
X171184505Y-81311204D02*
G01*
X171208773Y-81314804D01*
X171232572Y-81320765D01*
X171255671Y-81329030D01*
X171277850Y-81339520D01*
X171298893Y-81352132D01*
X171318599Y-81366747D01*
X171336777Y-81383223D01*
X171353253Y-81401401D01*
X171367868Y-81421107D01*
X171380480Y-81442150D01*
X171390970Y-81464329D01*
X171399235Y-81487428D01*
X171405196Y-81511227D01*
X171408796Y-81535495D01*
X171410000Y-81559999D01*
X171410000Y-82210001D01*
X171408796Y-82234505D01*
X171405196Y-82258773D01*
X171399235Y-82282572D01*
X171390970Y-82305671D01*
X171380480Y-82327850D01*
X171367868Y-82348893D01*
X171353253Y-82368599D01*
X171336777Y-82386777D01*
X171318599Y-82403253D01*
X171298893Y-82417868D01*
X171277850Y-82430480D01*
X171255671Y-82440970D01*
X171232572Y-82449235D01*
X171208773Y-82455196D01*
X171184505Y-82458796D01*
X171160001Y-82460000D01*
X170259999Y-82460000D01*
X170235495Y-82458796D01*
X170211227Y-82455196D01*
X170187428Y-82449235D01*
X170164329Y-82440970D01*
X170142150Y-82430480D01*
X170121107Y-82417868D01*
X170101401Y-82403253D01*
X170083223Y-82386777D01*
X170066747Y-82368599D01*
X170052132Y-82348893D01*
X170039520Y-82327850D01*
X170029030Y-82305671D01*
X170020765Y-82282572D01*
X170014804Y-82258773D01*
X170011204Y-82234505D01*
X170010000Y-82210001D01*
X170010000Y-81559999D01*
X170011204Y-81535495D01*
X170014804Y-81511227D01*
X170020765Y-81487428D01*
X170029030Y-81464329D01*
X170039520Y-81442150D01*
X170052132Y-81421107D01*
X170066747Y-81401401D01*
X170083223Y-81383223D01*
X170101401Y-81366747D01*
X170121107Y-81352132D01*
X170142150Y-81339520D01*
X170164329Y-81329030D01*
X170187428Y-81320765D01*
X170211227Y-81314804D01*
X170235495Y-81311204D01*
X170259999Y-81310000D01*
X171160001Y-81310000D01*
X171184505Y-81311204D01*
X171184505Y-81311204D01*
G37*
D14*
X170710000Y-81885000D03*
D10*
G36*
X171184505Y-79261204D02*
G01*
X171208773Y-79264804D01*
X171232572Y-79270765D01*
X171255671Y-79279030D01*
X171277850Y-79289520D01*
X171298893Y-79302132D01*
X171318599Y-79316747D01*
X171336777Y-79333223D01*
X171353253Y-79351401D01*
X171367868Y-79371107D01*
X171380480Y-79392150D01*
X171390970Y-79414329D01*
X171399235Y-79437428D01*
X171405196Y-79461227D01*
X171408796Y-79485495D01*
X171410000Y-79509999D01*
X171410000Y-80160001D01*
X171408796Y-80184505D01*
X171405196Y-80208773D01*
X171399235Y-80232572D01*
X171390970Y-80255671D01*
X171380480Y-80277850D01*
X171367868Y-80298893D01*
X171353253Y-80318599D01*
X171336777Y-80336777D01*
X171318599Y-80353253D01*
X171298893Y-80367868D01*
X171277850Y-80380480D01*
X171255671Y-80390970D01*
X171232572Y-80399235D01*
X171208773Y-80405196D01*
X171184505Y-80408796D01*
X171160001Y-80410000D01*
X170259999Y-80410000D01*
X170235495Y-80408796D01*
X170211227Y-80405196D01*
X170187428Y-80399235D01*
X170164329Y-80390970D01*
X170142150Y-80380480D01*
X170121107Y-80367868D01*
X170101401Y-80353253D01*
X170083223Y-80336777D01*
X170066747Y-80318599D01*
X170052132Y-80298893D01*
X170039520Y-80277850D01*
X170029030Y-80255671D01*
X170020765Y-80232572D01*
X170014804Y-80208773D01*
X170011204Y-80184505D01*
X170010000Y-80160001D01*
X170010000Y-79509999D01*
X170011204Y-79485495D01*
X170014804Y-79461227D01*
X170020765Y-79437428D01*
X170029030Y-79414329D01*
X170039520Y-79392150D01*
X170052132Y-79371107D01*
X170066747Y-79351401D01*
X170083223Y-79333223D01*
X170101401Y-79316747D01*
X170121107Y-79302132D01*
X170142150Y-79289520D01*
X170164329Y-79279030D01*
X170187428Y-79270765D01*
X170211227Y-79264804D01*
X170235495Y-79261204D01*
X170259999Y-79260000D01*
X171160001Y-79260000D01*
X171184505Y-79261204D01*
X171184505Y-79261204D01*
G37*
D14*
X170710000Y-79835000D03*
D10*
G36*
X155474505Y-90487204D02*
G01*
X155498773Y-90490804D01*
X155522572Y-90496765D01*
X155545671Y-90505030D01*
X155567850Y-90515520D01*
X155588893Y-90528132D01*
X155608599Y-90542747D01*
X155626777Y-90559223D01*
X155643253Y-90577401D01*
X155657868Y-90597107D01*
X155670480Y-90618150D01*
X155680970Y-90640329D01*
X155689235Y-90663428D01*
X155695196Y-90687227D01*
X155698796Y-90711495D01*
X155700000Y-90735999D01*
X155700000Y-91636001D01*
X155698796Y-91660505D01*
X155695196Y-91684773D01*
X155689235Y-91708572D01*
X155680970Y-91731671D01*
X155670480Y-91753850D01*
X155657868Y-91774893D01*
X155643253Y-91794599D01*
X155626777Y-91812777D01*
X155608599Y-91829253D01*
X155588893Y-91843868D01*
X155567850Y-91856480D01*
X155545671Y-91866970D01*
X155522572Y-91875235D01*
X155498773Y-91881196D01*
X155474505Y-91884796D01*
X155450001Y-91886000D01*
X154799999Y-91886000D01*
X154775495Y-91884796D01*
X154751227Y-91881196D01*
X154727428Y-91875235D01*
X154704329Y-91866970D01*
X154682150Y-91856480D01*
X154661107Y-91843868D01*
X154641401Y-91829253D01*
X154623223Y-91812777D01*
X154606747Y-91794599D01*
X154592132Y-91774893D01*
X154579520Y-91753850D01*
X154569030Y-91731671D01*
X154560765Y-91708572D01*
X154554804Y-91684773D01*
X154551204Y-91660505D01*
X154550000Y-91636001D01*
X154550000Y-90735999D01*
X154551204Y-90711495D01*
X154554804Y-90687227D01*
X154560765Y-90663428D01*
X154569030Y-90640329D01*
X154579520Y-90618150D01*
X154592132Y-90597107D01*
X154606747Y-90577401D01*
X154623223Y-90559223D01*
X154641401Y-90542747D01*
X154661107Y-90528132D01*
X154682150Y-90515520D01*
X154704329Y-90505030D01*
X154727428Y-90496765D01*
X154751227Y-90490804D01*
X154775495Y-90487204D01*
X154799999Y-90486000D01*
X155450001Y-90486000D01*
X155474505Y-90487204D01*
X155474505Y-90487204D01*
G37*
D14*
X155125000Y-91186000D03*
D10*
G36*
X153424505Y-90487204D02*
G01*
X153448773Y-90490804D01*
X153472572Y-90496765D01*
X153495671Y-90505030D01*
X153517850Y-90515520D01*
X153538893Y-90528132D01*
X153558599Y-90542747D01*
X153576777Y-90559223D01*
X153593253Y-90577401D01*
X153607868Y-90597107D01*
X153620480Y-90618150D01*
X153630970Y-90640329D01*
X153639235Y-90663428D01*
X153645196Y-90687227D01*
X153648796Y-90711495D01*
X153650000Y-90735999D01*
X153650000Y-91636001D01*
X153648796Y-91660505D01*
X153645196Y-91684773D01*
X153639235Y-91708572D01*
X153630970Y-91731671D01*
X153620480Y-91753850D01*
X153607868Y-91774893D01*
X153593253Y-91794599D01*
X153576777Y-91812777D01*
X153558599Y-91829253D01*
X153538893Y-91843868D01*
X153517850Y-91856480D01*
X153495671Y-91866970D01*
X153472572Y-91875235D01*
X153448773Y-91881196D01*
X153424505Y-91884796D01*
X153400001Y-91886000D01*
X152749999Y-91886000D01*
X152725495Y-91884796D01*
X152701227Y-91881196D01*
X152677428Y-91875235D01*
X152654329Y-91866970D01*
X152632150Y-91856480D01*
X152611107Y-91843868D01*
X152591401Y-91829253D01*
X152573223Y-91812777D01*
X152556747Y-91794599D01*
X152542132Y-91774893D01*
X152529520Y-91753850D01*
X152519030Y-91731671D01*
X152510765Y-91708572D01*
X152504804Y-91684773D01*
X152501204Y-91660505D01*
X152500000Y-91636001D01*
X152500000Y-90735999D01*
X152501204Y-90711495D01*
X152504804Y-90687227D01*
X152510765Y-90663428D01*
X152519030Y-90640329D01*
X152529520Y-90618150D01*
X152542132Y-90597107D01*
X152556747Y-90577401D01*
X152573223Y-90559223D01*
X152591401Y-90542747D01*
X152611107Y-90528132D01*
X152632150Y-90515520D01*
X152654329Y-90505030D01*
X152677428Y-90496765D01*
X152701227Y-90490804D01*
X152725495Y-90487204D01*
X152749999Y-90486000D01*
X153400001Y-90486000D01*
X153424505Y-90487204D01*
X153424505Y-90487204D01*
G37*
D14*
X153075000Y-91186000D03*
D10*
G36*
X167753505Y-90487204D02*
G01*
X167777773Y-90490804D01*
X167801572Y-90496765D01*
X167824671Y-90505030D01*
X167846850Y-90515520D01*
X167867893Y-90528132D01*
X167887599Y-90542747D01*
X167905777Y-90559223D01*
X167922253Y-90577401D01*
X167936868Y-90597107D01*
X167949480Y-90618150D01*
X167959970Y-90640329D01*
X167968235Y-90663428D01*
X167974196Y-90687227D01*
X167977796Y-90711495D01*
X167979000Y-90735999D01*
X167979000Y-91636001D01*
X167977796Y-91660505D01*
X167974196Y-91684773D01*
X167968235Y-91708572D01*
X167959970Y-91731671D01*
X167949480Y-91753850D01*
X167936868Y-91774893D01*
X167922253Y-91794599D01*
X167905777Y-91812777D01*
X167887599Y-91829253D01*
X167867893Y-91843868D01*
X167846850Y-91856480D01*
X167824671Y-91866970D01*
X167801572Y-91875235D01*
X167777773Y-91881196D01*
X167753505Y-91884796D01*
X167729001Y-91886000D01*
X167078999Y-91886000D01*
X167054495Y-91884796D01*
X167030227Y-91881196D01*
X167006428Y-91875235D01*
X166983329Y-91866970D01*
X166961150Y-91856480D01*
X166940107Y-91843868D01*
X166920401Y-91829253D01*
X166902223Y-91812777D01*
X166885747Y-91794599D01*
X166871132Y-91774893D01*
X166858520Y-91753850D01*
X166848030Y-91731671D01*
X166839765Y-91708572D01*
X166833804Y-91684773D01*
X166830204Y-91660505D01*
X166829000Y-91636001D01*
X166829000Y-90735999D01*
X166830204Y-90711495D01*
X166833804Y-90687227D01*
X166839765Y-90663428D01*
X166848030Y-90640329D01*
X166858520Y-90618150D01*
X166871132Y-90597107D01*
X166885747Y-90577401D01*
X166902223Y-90559223D01*
X166920401Y-90542747D01*
X166940107Y-90528132D01*
X166961150Y-90515520D01*
X166983329Y-90505030D01*
X167006428Y-90496765D01*
X167030227Y-90490804D01*
X167054495Y-90487204D01*
X167078999Y-90486000D01*
X167729001Y-90486000D01*
X167753505Y-90487204D01*
X167753505Y-90487204D01*
G37*
D14*
X167404000Y-91186000D03*
D10*
G36*
X165703505Y-90487204D02*
G01*
X165727773Y-90490804D01*
X165751572Y-90496765D01*
X165774671Y-90505030D01*
X165796850Y-90515520D01*
X165817893Y-90528132D01*
X165837599Y-90542747D01*
X165855777Y-90559223D01*
X165872253Y-90577401D01*
X165886868Y-90597107D01*
X165899480Y-90618150D01*
X165909970Y-90640329D01*
X165918235Y-90663428D01*
X165924196Y-90687227D01*
X165927796Y-90711495D01*
X165929000Y-90735999D01*
X165929000Y-91636001D01*
X165927796Y-91660505D01*
X165924196Y-91684773D01*
X165918235Y-91708572D01*
X165909970Y-91731671D01*
X165899480Y-91753850D01*
X165886868Y-91774893D01*
X165872253Y-91794599D01*
X165855777Y-91812777D01*
X165837599Y-91829253D01*
X165817893Y-91843868D01*
X165796850Y-91856480D01*
X165774671Y-91866970D01*
X165751572Y-91875235D01*
X165727773Y-91881196D01*
X165703505Y-91884796D01*
X165679001Y-91886000D01*
X165028999Y-91886000D01*
X165004495Y-91884796D01*
X164980227Y-91881196D01*
X164956428Y-91875235D01*
X164933329Y-91866970D01*
X164911150Y-91856480D01*
X164890107Y-91843868D01*
X164870401Y-91829253D01*
X164852223Y-91812777D01*
X164835747Y-91794599D01*
X164821132Y-91774893D01*
X164808520Y-91753850D01*
X164798030Y-91731671D01*
X164789765Y-91708572D01*
X164783804Y-91684773D01*
X164780204Y-91660505D01*
X164779000Y-91636001D01*
X164779000Y-90735999D01*
X164780204Y-90711495D01*
X164783804Y-90687227D01*
X164789765Y-90663428D01*
X164798030Y-90640329D01*
X164808520Y-90618150D01*
X164821132Y-90597107D01*
X164835747Y-90577401D01*
X164852223Y-90559223D01*
X164870401Y-90542747D01*
X164890107Y-90528132D01*
X164911150Y-90515520D01*
X164933329Y-90505030D01*
X164956428Y-90496765D01*
X164980227Y-90490804D01*
X165004495Y-90487204D01*
X165028999Y-90486000D01*
X165679001Y-90486000D01*
X165703505Y-90487204D01*
X165703505Y-90487204D01*
G37*
D14*
X165354000Y-91186000D03*
D10*
G36*
X154574505Y-81311204D02*
G01*
X154598773Y-81314804D01*
X154622572Y-81320765D01*
X154645671Y-81329030D01*
X154667850Y-81339520D01*
X154688893Y-81352132D01*
X154708599Y-81366747D01*
X154726777Y-81383223D01*
X154743253Y-81401401D01*
X154757868Y-81421107D01*
X154770480Y-81442150D01*
X154780970Y-81464329D01*
X154789235Y-81487428D01*
X154795196Y-81511227D01*
X154798796Y-81535495D01*
X154800000Y-81559999D01*
X154800000Y-82210001D01*
X154798796Y-82234505D01*
X154795196Y-82258773D01*
X154789235Y-82282572D01*
X154780970Y-82305671D01*
X154770480Y-82327850D01*
X154757868Y-82348893D01*
X154743253Y-82368599D01*
X154726777Y-82386777D01*
X154708599Y-82403253D01*
X154688893Y-82417868D01*
X154667850Y-82430480D01*
X154645671Y-82440970D01*
X154622572Y-82449235D01*
X154598773Y-82455196D01*
X154574505Y-82458796D01*
X154550001Y-82460000D01*
X153649999Y-82460000D01*
X153625495Y-82458796D01*
X153601227Y-82455196D01*
X153577428Y-82449235D01*
X153554329Y-82440970D01*
X153532150Y-82430480D01*
X153511107Y-82417868D01*
X153491401Y-82403253D01*
X153473223Y-82386777D01*
X153456747Y-82368599D01*
X153442132Y-82348893D01*
X153429520Y-82327850D01*
X153419030Y-82305671D01*
X153410765Y-82282572D01*
X153404804Y-82258773D01*
X153401204Y-82234505D01*
X153400000Y-82210001D01*
X153400000Y-81559999D01*
X153401204Y-81535495D01*
X153404804Y-81511227D01*
X153410765Y-81487428D01*
X153419030Y-81464329D01*
X153429520Y-81442150D01*
X153442132Y-81421107D01*
X153456747Y-81401401D01*
X153473223Y-81383223D01*
X153491401Y-81366747D01*
X153511107Y-81352132D01*
X153532150Y-81339520D01*
X153554329Y-81329030D01*
X153577428Y-81320765D01*
X153601227Y-81314804D01*
X153625495Y-81311204D01*
X153649999Y-81310000D01*
X154550001Y-81310000D01*
X154574505Y-81311204D01*
X154574505Y-81311204D01*
G37*
D14*
X154100000Y-81885000D03*
D10*
G36*
X154574505Y-79261204D02*
G01*
X154598773Y-79264804D01*
X154622572Y-79270765D01*
X154645671Y-79279030D01*
X154667850Y-79289520D01*
X154688893Y-79302132D01*
X154708599Y-79316747D01*
X154726777Y-79333223D01*
X154743253Y-79351401D01*
X154757868Y-79371107D01*
X154770480Y-79392150D01*
X154780970Y-79414329D01*
X154789235Y-79437428D01*
X154795196Y-79461227D01*
X154798796Y-79485495D01*
X154800000Y-79509999D01*
X154800000Y-80160001D01*
X154798796Y-80184505D01*
X154795196Y-80208773D01*
X154789235Y-80232572D01*
X154780970Y-80255671D01*
X154770480Y-80277850D01*
X154757868Y-80298893D01*
X154743253Y-80318599D01*
X154726777Y-80336777D01*
X154708599Y-80353253D01*
X154688893Y-80367868D01*
X154667850Y-80380480D01*
X154645671Y-80390970D01*
X154622572Y-80399235D01*
X154598773Y-80405196D01*
X154574505Y-80408796D01*
X154550001Y-80410000D01*
X153649999Y-80410000D01*
X153625495Y-80408796D01*
X153601227Y-80405196D01*
X153577428Y-80399235D01*
X153554329Y-80390970D01*
X153532150Y-80380480D01*
X153511107Y-80367868D01*
X153491401Y-80353253D01*
X153473223Y-80336777D01*
X153456747Y-80318599D01*
X153442132Y-80298893D01*
X153429520Y-80277850D01*
X153419030Y-80255671D01*
X153410765Y-80232572D01*
X153404804Y-80208773D01*
X153401204Y-80184505D01*
X153400000Y-80160001D01*
X153400000Y-79509999D01*
X153401204Y-79485495D01*
X153404804Y-79461227D01*
X153410765Y-79437428D01*
X153419030Y-79414329D01*
X153429520Y-79392150D01*
X153442132Y-79371107D01*
X153456747Y-79351401D01*
X153473223Y-79333223D01*
X153491401Y-79316747D01*
X153511107Y-79302132D01*
X153532150Y-79289520D01*
X153554329Y-79279030D01*
X153577428Y-79270765D01*
X153601227Y-79264804D01*
X153625495Y-79261204D01*
X153649999Y-79260000D01*
X154550001Y-79260000D01*
X154574505Y-79261204D01*
X154574505Y-79261204D01*
G37*
D14*
X154100000Y-79835000D03*
D10*
G36*
X159654505Y-84507204D02*
G01*
X159678773Y-84510804D01*
X159702572Y-84516765D01*
X159725671Y-84525030D01*
X159747850Y-84535520D01*
X159768893Y-84548132D01*
X159788599Y-84562747D01*
X159806777Y-84579223D01*
X159823253Y-84597401D01*
X159837868Y-84617107D01*
X159850480Y-84638150D01*
X159860970Y-84660329D01*
X159869235Y-84683428D01*
X159875196Y-84707227D01*
X159878796Y-84731495D01*
X159880000Y-84755999D01*
X159880000Y-85406001D01*
X159878796Y-85430505D01*
X159875196Y-85454773D01*
X159869235Y-85478572D01*
X159860970Y-85501671D01*
X159850480Y-85523850D01*
X159837868Y-85544893D01*
X159823253Y-85564599D01*
X159806777Y-85582777D01*
X159788599Y-85599253D01*
X159768893Y-85613868D01*
X159747850Y-85626480D01*
X159725671Y-85636970D01*
X159702572Y-85645235D01*
X159678773Y-85651196D01*
X159654505Y-85654796D01*
X159630001Y-85656000D01*
X158729999Y-85656000D01*
X158705495Y-85654796D01*
X158681227Y-85651196D01*
X158657428Y-85645235D01*
X158634329Y-85636970D01*
X158612150Y-85626480D01*
X158591107Y-85613868D01*
X158571401Y-85599253D01*
X158553223Y-85582777D01*
X158536747Y-85564599D01*
X158522132Y-85544893D01*
X158509520Y-85523850D01*
X158499030Y-85501671D01*
X158490765Y-85478572D01*
X158484804Y-85454773D01*
X158481204Y-85430505D01*
X158480000Y-85406001D01*
X158480000Y-84755999D01*
X158481204Y-84731495D01*
X158484804Y-84707227D01*
X158490765Y-84683428D01*
X158499030Y-84660329D01*
X158509520Y-84638150D01*
X158522132Y-84617107D01*
X158536747Y-84597401D01*
X158553223Y-84579223D01*
X158571401Y-84562747D01*
X158591107Y-84548132D01*
X158612150Y-84535520D01*
X158634329Y-84525030D01*
X158657428Y-84516765D01*
X158681227Y-84510804D01*
X158705495Y-84507204D01*
X158729999Y-84506000D01*
X159630001Y-84506000D01*
X159654505Y-84507204D01*
X159654505Y-84507204D01*
G37*
D14*
X159180000Y-85081000D03*
D10*
G36*
X159654505Y-86557204D02*
G01*
X159678773Y-86560804D01*
X159702572Y-86566765D01*
X159725671Y-86575030D01*
X159747850Y-86585520D01*
X159768893Y-86598132D01*
X159788599Y-86612747D01*
X159806777Y-86629223D01*
X159823253Y-86647401D01*
X159837868Y-86667107D01*
X159850480Y-86688150D01*
X159860970Y-86710329D01*
X159869235Y-86733428D01*
X159875196Y-86757227D01*
X159878796Y-86781495D01*
X159880000Y-86805999D01*
X159880000Y-87456001D01*
X159878796Y-87480505D01*
X159875196Y-87504773D01*
X159869235Y-87528572D01*
X159860970Y-87551671D01*
X159850480Y-87573850D01*
X159837868Y-87594893D01*
X159823253Y-87614599D01*
X159806777Y-87632777D01*
X159788599Y-87649253D01*
X159768893Y-87663868D01*
X159747850Y-87676480D01*
X159725671Y-87686970D01*
X159702572Y-87695235D01*
X159678773Y-87701196D01*
X159654505Y-87704796D01*
X159630001Y-87706000D01*
X158729999Y-87706000D01*
X158705495Y-87704796D01*
X158681227Y-87701196D01*
X158657428Y-87695235D01*
X158634329Y-87686970D01*
X158612150Y-87676480D01*
X158591107Y-87663868D01*
X158571401Y-87649253D01*
X158553223Y-87632777D01*
X158536747Y-87614599D01*
X158522132Y-87594893D01*
X158509520Y-87573850D01*
X158499030Y-87551671D01*
X158490765Y-87528572D01*
X158484804Y-87504773D01*
X158481204Y-87480505D01*
X158480000Y-87456001D01*
X158480000Y-86805999D01*
X158481204Y-86781495D01*
X158484804Y-86757227D01*
X158490765Y-86733428D01*
X158499030Y-86710329D01*
X158509520Y-86688150D01*
X158522132Y-86667107D01*
X158536747Y-86647401D01*
X158553223Y-86629223D01*
X158571401Y-86612747D01*
X158591107Y-86598132D01*
X158612150Y-86585520D01*
X158634329Y-86575030D01*
X158657428Y-86566765D01*
X158681227Y-86560804D01*
X158705495Y-86557204D01*
X158729999Y-86556000D01*
X159630001Y-86556000D01*
X159654505Y-86557204D01*
X159654505Y-86557204D01*
G37*
D14*
X159180000Y-87131000D03*
D10*
G36*
X168644505Y-81311204D02*
G01*
X168668773Y-81314804D01*
X168692572Y-81320765D01*
X168715671Y-81329030D01*
X168737850Y-81339520D01*
X168758893Y-81352132D01*
X168778599Y-81366747D01*
X168796777Y-81383223D01*
X168813253Y-81401401D01*
X168827868Y-81421107D01*
X168840480Y-81442150D01*
X168850970Y-81464329D01*
X168859235Y-81487428D01*
X168865196Y-81511227D01*
X168868796Y-81535495D01*
X168870000Y-81559999D01*
X168870000Y-82210001D01*
X168868796Y-82234505D01*
X168865196Y-82258773D01*
X168859235Y-82282572D01*
X168850970Y-82305671D01*
X168840480Y-82327850D01*
X168827868Y-82348893D01*
X168813253Y-82368599D01*
X168796777Y-82386777D01*
X168778599Y-82403253D01*
X168758893Y-82417868D01*
X168737850Y-82430480D01*
X168715671Y-82440970D01*
X168692572Y-82449235D01*
X168668773Y-82455196D01*
X168644505Y-82458796D01*
X168620001Y-82460000D01*
X167719999Y-82460000D01*
X167695495Y-82458796D01*
X167671227Y-82455196D01*
X167647428Y-82449235D01*
X167624329Y-82440970D01*
X167602150Y-82430480D01*
X167581107Y-82417868D01*
X167561401Y-82403253D01*
X167543223Y-82386777D01*
X167526747Y-82368599D01*
X167512132Y-82348893D01*
X167499520Y-82327850D01*
X167489030Y-82305671D01*
X167480765Y-82282572D01*
X167474804Y-82258773D01*
X167471204Y-82234505D01*
X167470000Y-82210001D01*
X167470000Y-81559999D01*
X167471204Y-81535495D01*
X167474804Y-81511227D01*
X167480765Y-81487428D01*
X167489030Y-81464329D01*
X167499520Y-81442150D01*
X167512132Y-81421107D01*
X167526747Y-81401401D01*
X167543223Y-81383223D01*
X167561401Y-81366747D01*
X167581107Y-81352132D01*
X167602150Y-81339520D01*
X167624329Y-81329030D01*
X167647428Y-81320765D01*
X167671227Y-81314804D01*
X167695495Y-81311204D01*
X167719999Y-81310000D01*
X168620001Y-81310000D01*
X168644505Y-81311204D01*
X168644505Y-81311204D01*
G37*
D14*
X168170000Y-81885000D03*
D10*
G36*
X168644505Y-79261204D02*
G01*
X168668773Y-79264804D01*
X168692572Y-79270765D01*
X168715671Y-79279030D01*
X168737850Y-79289520D01*
X168758893Y-79302132D01*
X168778599Y-79316747D01*
X168796777Y-79333223D01*
X168813253Y-79351401D01*
X168827868Y-79371107D01*
X168840480Y-79392150D01*
X168850970Y-79414329D01*
X168859235Y-79437428D01*
X168865196Y-79461227D01*
X168868796Y-79485495D01*
X168870000Y-79509999D01*
X168870000Y-80160001D01*
X168868796Y-80184505D01*
X168865196Y-80208773D01*
X168859235Y-80232572D01*
X168850970Y-80255671D01*
X168840480Y-80277850D01*
X168827868Y-80298893D01*
X168813253Y-80318599D01*
X168796777Y-80336777D01*
X168778599Y-80353253D01*
X168758893Y-80367868D01*
X168737850Y-80380480D01*
X168715671Y-80390970D01*
X168692572Y-80399235D01*
X168668773Y-80405196D01*
X168644505Y-80408796D01*
X168620001Y-80410000D01*
X167719999Y-80410000D01*
X167695495Y-80408796D01*
X167671227Y-80405196D01*
X167647428Y-80399235D01*
X167624329Y-80390970D01*
X167602150Y-80380480D01*
X167581107Y-80367868D01*
X167561401Y-80353253D01*
X167543223Y-80336777D01*
X167526747Y-80318599D01*
X167512132Y-80298893D01*
X167499520Y-80277850D01*
X167489030Y-80255671D01*
X167480765Y-80232572D01*
X167474804Y-80208773D01*
X167471204Y-80184505D01*
X167470000Y-80160001D01*
X167470000Y-79509999D01*
X167471204Y-79485495D01*
X167474804Y-79461227D01*
X167480765Y-79437428D01*
X167489030Y-79414329D01*
X167499520Y-79392150D01*
X167512132Y-79371107D01*
X167526747Y-79351401D01*
X167543223Y-79333223D01*
X167561401Y-79316747D01*
X167581107Y-79302132D01*
X167602150Y-79289520D01*
X167624329Y-79279030D01*
X167647428Y-79270765D01*
X167671227Y-79264804D01*
X167695495Y-79261204D01*
X167719999Y-79260000D01*
X168620001Y-79260000D01*
X168644505Y-79261204D01*
X168644505Y-79261204D01*
G37*
D14*
X168170000Y-79835000D03*
D10*
G36*
X171924505Y-84507204D02*
G01*
X171948773Y-84510804D01*
X171972572Y-84516765D01*
X171995671Y-84525030D01*
X172017850Y-84535520D01*
X172038893Y-84548132D01*
X172058599Y-84562747D01*
X172076777Y-84579223D01*
X172093253Y-84597401D01*
X172107868Y-84617107D01*
X172120480Y-84638150D01*
X172130970Y-84660329D01*
X172139235Y-84683428D01*
X172145196Y-84707227D01*
X172148796Y-84731495D01*
X172150000Y-84755999D01*
X172150000Y-85406001D01*
X172148796Y-85430505D01*
X172145196Y-85454773D01*
X172139235Y-85478572D01*
X172130970Y-85501671D01*
X172120480Y-85523850D01*
X172107868Y-85544893D01*
X172093253Y-85564599D01*
X172076777Y-85582777D01*
X172058599Y-85599253D01*
X172038893Y-85613868D01*
X172017850Y-85626480D01*
X171995671Y-85636970D01*
X171972572Y-85645235D01*
X171948773Y-85651196D01*
X171924505Y-85654796D01*
X171900001Y-85656000D01*
X170999999Y-85656000D01*
X170975495Y-85654796D01*
X170951227Y-85651196D01*
X170927428Y-85645235D01*
X170904329Y-85636970D01*
X170882150Y-85626480D01*
X170861107Y-85613868D01*
X170841401Y-85599253D01*
X170823223Y-85582777D01*
X170806747Y-85564599D01*
X170792132Y-85544893D01*
X170779520Y-85523850D01*
X170769030Y-85501671D01*
X170760765Y-85478572D01*
X170754804Y-85454773D01*
X170751204Y-85430505D01*
X170750000Y-85406001D01*
X170750000Y-84755999D01*
X170751204Y-84731495D01*
X170754804Y-84707227D01*
X170760765Y-84683428D01*
X170769030Y-84660329D01*
X170779520Y-84638150D01*
X170792132Y-84617107D01*
X170806747Y-84597401D01*
X170823223Y-84579223D01*
X170841401Y-84562747D01*
X170861107Y-84548132D01*
X170882150Y-84535520D01*
X170904329Y-84525030D01*
X170927428Y-84516765D01*
X170951227Y-84510804D01*
X170975495Y-84507204D01*
X170999999Y-84506000D01*
X171900001Y-84506000D01*
X171924505Y-84507204D01*
X171924505Y-84507204D01*
G37*
D14*
X171450000Y-85081000D03*
D10*
G36*
X171924505Y-86557204D02*
G01*
X171948773Y-86560804D01*
X171972572Y-86566765D01*
X171995671Y-86575030D01*
X172017850Y-86585520D01*
X172038893Y-86598132D01*
X172058599Y-86612747D01*
X172076777Y-86629223D01*
X172093253Y-86647401D01*
X172107868Y-86667107D01*
X172120480Y-86688150D01*
X172130970Y-86710329D01*
X172139235Y-86733428D01*
X172145196Y-86757227D01*
X172148796Y-86781495D01*
X172150000Y-86805999D01*
X172150000Y-87456001D01*
X172148796Y-87480505D01*
X172145196Y-87504773D01*
X172139235Y-87528572D01*
X172130970Y-87551671D01*
X172120480Y-87573850D01*
X172107868Y-87594893D01*
X172093253Y-87614599D01*
X172076777Y-87632777D01*
X172058599Y-87649253D01*
X172038893Y-87663868D01*
X172017850Y-87676480D01*
X171995671Y-87686970D01*
X171972572Y-87695235D01*
X171948773Y-87701196D01*
X171924505Y-87704796D01*
X171900001Y-87706000D01*
X170999999Y-87706000D01*
X170975495Y-87704796D01*
X170951227Y-87701196D01*
X170927428Y-87695235D01*
X170904329Y-87686970D01*
X170882150Y-87676480D01*
X170861107Y-87663868D01*
X170841401Y-87649253D01*
X170823223Y-87632777D01*
X170806747Y-87614599D01*
X170792132Y-87594893D01*
X170779520Y-87573850D01*
X170769030Y-87551671D01*
X170760765Y-87528572D01*
X170754804Y-87504773D01*
X170751204Y-87480505D01*
X170750000Y-87456001D01*
X170750000Y-86805999D01*
X170751204Y-86781495D01*
X170754804Y-86757227D01*
X170760765Y-86733428D01*
X170769030Y-86710329D01*
X170779520Y-86688150D01*
X170792132Y-86667107D01*
X170806747Y-86647401D01*
X170823223Y-86629223D01*
X170841401Y-86612747D01*
X170861107Y-86598132D01*
X170882150Y-86585520D01*
X170904329Y-86575030D01*
X170927428Y-86566765D01*
X170951227Y-86560804D01*
X170975495Y-86557204D01*
X170999999Y-86556000D01*
X171900001Y-86556000D01*
X171924505Y-86557204D01*
X171924505Y-86557204D01*
G37*
D14*
X171450000Y-87131000D03*
D10*
G36*
X150874505Y-100701204D02*
G01*
X150898773Y-100704804D01*
X150922572Y-100710765D01*
X150945671Y-100719030D01*
X150967850Y-100729520D01*
X150988893Y-100742132D01*
X151008599Y-100756747D01*
X151026777Y-100773223D01*
X151043253Y-100791401D01*
X151057868Y-100811107D01*
X151070480Y-100832150D01*
X151080970Y-100854329D01*
X151089235Y-100877428D01*
X151095196Y-100901227D01*
X151098796Y-100925495D01*
X151100000Y-100949999D01*
X151100000Y-101850001D01*
X151098796Y-101874505D01*
X151095196Y-101898773D01*
X151089235Y-101922572D01*
X151080970Y-101945671D01*
X151070480Y-101967850D01*
X151057868Y-101988893D01*
X151043253Y-102008599D01*
X151026777Y-102026777D01*
X151008599Y-102043253D01*
X150988893Y-102057868D01*
X150967850Y-102070480D01*
X150945671Y-102080970D01*
X150922572Y-102089235D01*
X150898773Y-102095196D01*
X150874505Y-102098796D01*
X150850001Y-102100000D01*
X150199999Y-102100000D01*
X150175495Y-102098796D01*
X150151227Y-102095196D01*
X150127428Y-102089235D01*
X150104329Y-102080970D01*
X150082150Y-102070480D01*
X150061107Y-102057868D01*
X150041401Y-102043253D01*
X150023223Y-102026777D01*
X150006747Y-102008599D01*
X149992132Y-101988893D01*
X149979520Y-101967850D01*
X149969030Y-101945671D01*
X149960765Y-101922572D01*
X149954804Y-101898773D01*
X149951204Y-101874505D01*
X149950000Y-101850001D01*
X149950000Y-100949999D01*
X149951204Y-100925495D01*
X149954804Y-100901227D01*
X149960765Y-100877428D01*
X149969030Y-100854329D01*
X149979520Y-100832150D01*
X149992132Y-100811107D01*
X150006747Y-100791401D01*
X150023223Y-100773223D01*
X150041401Y-100756747D01*
X150061107Y-100742132D01*
X150082150Y-100729520D01*
X150104329Y-100719030D01*
X150127428Y-100710765D01*
X150151227Y-100704804D01*
X150175495Y-100701204D01*
X150199999Y-100700000D01*
X150850001Y-100700000D01*
X150874505Y-100701204D01*
X150874505Y-100701204D01*
G37*
D14*
X150525000Y-101400000D03*
D10*
G36*
X148824505Y-100701204D02*
G01*
X148848773Y-100704804D01*
X148872572Y-100710765D01*
X148895671Y-100719030D01*
X148917850Y-100729520D01*
X148938893Y-100742132D01*
X148958599Y-100756747D01*
X148976777Y-100773223D01*
X148993253Y-100791401D01*
X149007868Y-100811107D01*
X149020480Y-100832150D01*
X149030970Y-100854329D01*
X149039235Y-100877428D01*
X149045196Y-100901227D01*
X149048796Y-100925495D01*
X149050000Y-100949999D01*
X149050000Y-101850001D01*
X149048796Y-101874505D01*
X149045196Y-101898773D01*
X149039235Y-101922572D01*
X149030970Y-101945671D01*
X149020480Y-101967850D01*
X149007868Y-101988893D01*
X148993253Y-102008599D01*
X148976777Y-102026777D01*
X148958599Y-102043253D01*
X148938893Y-102057868D01*
X148917850Y-102070480D01*
X148895671Y-102080970D01*
X148872572Y-102089235D01*
X148848773Y-102095196D01*
X148824505Y-102098796D01*
X148800001Y-102100000D01*
X148149999Y-102100000D01*
X148125495Y-102098796D01*
X148101227Y-102095196D01*
X148077428Y-102089235D01*
X148054329Y-102080970D01*
X148032150Y-102070480D01*
X148011107Y-102057868D01*
X147991401Y-102043253D01*
X147973223Y-102026777D01*
X147956747Y-102008599D01*
X147942132Y-101988893D01*
X147929520Y-101967850D01*
X147919030Y-101945671D01*
X147910765Y-101922572D01*
X147904804Y-101898773D01*
X147901204Y-101874505D01*
X147900000Y-101850001D01*
X147900000Y-100949999D01*
X147901204Y-100925495D01*
X147904804Y-100901227D01*
X147910765Y-100877428D01*
X147919030Y-100854329D01*
X147929520Y-100832150D01*
X147942132Y-100811107D01*
X147956747Y-100791401D01*
X147973223Y-100773223D01*
X147991401Y-100756747D01*
X148011107Y-100742132D01*
X148032150Y-100729520D01*
X148054329Y-100719030D01*
X148077428Y-100710765D01*
X148101227Y-100704804D01*
X148125495Y-100701204D01*
X148149999Y-100700000D01*
X148800001Y-100700000D01*
X148824505Y-100701204D01*
X148824505Y-100701204D01*
G37*
D14*
X148475000Y-101400000D03*
D10*
G36*
X176074505Y-86501204D02*
G01*
X176098773Y-86504804D01*
X176122572Y-86510765D01*
X176145671Y-86519030D01*
X176167850Y-86529520D01*
X176188893Y-86542132D01*
X176208599Y-86556747D01*
X176226777Y-86573223D01*
X176243253Y-86591401D01*
X176257868Y-86611107D01*
X176270480Y-86632150D01*
X176280970Y-86654329D01*
X176289235Y-86677428D01*
X176295196Y-86701227D01*
X176298796Y-86725495D01*
X176300000Y-86749999D01*
X176300000Y-87400001D01*
X176298796Y-87424505D01*
X176295196Y-87448773D01*
X176289235Y-87472572D01*
X176280970Y-87495671D01*
X176270480Y-87517850D01*
X176257868Y-87538893D01*
X176243253Y-87558599D01*
X176226777Y-87576777D01*
X176208599Y-87593253D01*
X176188893Y-87607868D01*
X176167850Y-87620480D01*
X176145671Y-87630970D01*
X176122572Y-87639235D01*
X176098773Y-87645196D01*
X176074505Y-87648796D01*
X176050001Y-87650000D01*
X175149999Y-87650000D01*
X175125495Y-87648796D01*
X175101227Y-87645196D01*
X175077428Y-87639235D01*
X175054329Y-87630970D01*
X175032150Y-87620480D01*
X175011107Y-87607868D01*
X174991401Y-87593253D01*
X174973223Y-87576777D01*
X174956747Y-87558599D01*
X174942132Y-87538893D01*
X174929520Y-87517850D01*
X174919030Y-87495671D01*
X174910765Y-87472572D01*
X174904804Y-87448773D01*
X174901204Y-87424505D01*
X174900000Y-87400001D01*
X174900000Y-86749999D01*
X174901204Y-86725495D01*
X174904804Y-86701227D01*
X174910765Y-86677428D01*
X174919030Y-86654329D01*
X174929520Y-86632150D01*
X174942132Y-86611107D01*
X174956747Y-86591401D01*
X174973223Y-86573223D01*
X174991401Y-86556747D01*
X175011107Y-86542132D01*
X175032150Y-86529520D01*
X175054329Y-86519030D01*
X175077428Y-86510765D01*
X175101227Y-86504804D01*
X175125495Y-86501204D01*
X175149999Y-86500000D01*
X176050001Y-86500000D01*
X176074505Y-86501204D01*
X176074505Y-86501204D01*
G37*
D14*
X175600000Y-87075000D03*
D10*
G36*
X176074505Y-88551204D02*
G01*
X176098773Y-88554804D01*
X176122572Y-88560765D01*
X176145671Y-88569030D01*
X176167850Y-88579520D01*
X176188893Y-88592132D01*
X176208599Y-88606747D01*
X176226777Y-88623223D01*
X176243253Y-88641401D01*
X176257868Y-88661107D01*
X176270480Y-88682150D01*
X176280970Y-88704329D01*
X176289235Y-88727428D01*
X176295196Y-88751227D01*
X176298796Y-88775495D01*
X176300000Y-88799999D01*
X176300000Y-89450001D01*
X176298796Y-89474505D01*
X176295196Y-89498773D01*
X176289235Y-89522572D01*
X176280970Y-89545671D01*
X176270480Y-89567850D01*
X176257868Y-89588893D01*
X176243253Y-89608599D01*
X176226777Y-89626777D01*
X176208599Y-89643253D01*
X176188893Y-89657868D01*
X176167850Y-89670480D01*
X176145671Y-89680970D01*
X176122572Y-89689235D01*
X176098773Y-89695196D01*
X176074505Y-89698796D01*
X176050001Y-89700000D01*
X175149999Y-89700000D01*
X175125495Y-89698796D01*
X175101227Y-89695196D01*
X175077428Y-89689235D01*
X175054329Y-89680970D01*
X175032150Y-89670480D01*
X175011107Y-89657868D01*
X174991401Y-89643253D01*
X174973223Y-89626777D01*
X174956747Y-89608599D01*
X174942132Y-89588893D01*
X174929520Y-89567850D01*
X174919030Y-89545671D01*
X174910765Y-89522572D01*
X174904804Y-89498773D01*
X174901204Y-89474505D01*
X174900000Y-89450001D01*
X174900000Y-88799999D01*
X174901204Y-88775495D01*
X174904804Y-88751227D01*
X174910765Y-88727428D01*
X174919030Y-88704329D01*
X174929520Y-88682150D01*
X174942132Y-88661107D01*
X174956747Y-88641401D01*
X174973223Y-88623223D01*
X174991401Y-88606747D01*
X175011107Y-88592132D01*
X175032150Y-88579520D01*
X175054329Y-88569030D01*
X175077428Y-88560765D01*
X175101227Y-88554804D01*
X175125495Y-88551204D01*
X175149999Y-88550000D01*
X176050001Y-88550000D01*
X176074505Y-88551204D01*
X176074505Y-88551204D01*
G37*
D14*
X175600000Y-89125000D03*
D10*
G36*
X178574505Y-88551204D02*
G01*
X178598773Y-88554804D01*
X178622572Y-88560765D01*
X178645671Y-88569030D01*
X178667850Y-88579520D01*
X178688893Y-88592132D01*
X178708599Y-88606747D01*
X178726777Y-88623223D01*
X178743253Y-88641401D01*
X178757868Y-88661107D01*
X178770480Y-88682150D01*
X178780970Y-88704329D01*
X178789235Y-88727428D01*
X178795196Y-88751227D01*
X178798796Y-88775495D01*
X178800000Y-88799999D01*
X178800000Y-89450001D01*
X178798796Y-89474505D01*
X178795196Y-89498773D01*
X178789235Y-89522572D01*
X178780970Y-89545671D01*
X178770480Y-89567850D01*
X178757868Y-89588893D01*
X178743253Y-89608599D01*
X178726777Y-89626777D01*
X178708599Y-89643253D01*
X178688893Y-89657868D01*
X178667850Y-89670480D01*
X178645671Y-89680970D01*
X178622572Y-89689235D01*
X178598773Y-89695196D01*
X178574505Y-89698796D01*
X178550001Y-89700000D01*
X177649999Y-89700000D01*
X177625495Y-89698796D01*
X177601227Y-89695196D01*
X177577428Y-89689235D01*
X177554329Y-89680970D01*
X177532150Y-89670480D01*
X177511107Y-89657868D01*
X177491401Y-89643253D01*
X177473223Y-89626777D01*
X177456747Y-89608599D01*
X177442132Y-89588893D01*
X177429520Y-89567850D01*
X177419030Y-89545671D01*
X177410765Y-89522572D01*
X177404804Y-89498773D01*
X177401204Y-89474505D01*
X177400000Y-89450001D01*
X177400000Y-88799999D01*
X177401204Y-88775495D01*
X177404804Y-88751227D01*
X177410765Y-88727428D01*
X177419030Y-88704329D01*
X177429520Y-88682150D01*
X177442132Y-88661107D01*
X177456747Y-88641401D01*
X177473223Y-88623223D01*
X177491401Y-88606747D01*
X177511107Y-88592132D01*
X177532150Y-88579520D01*
X177554329Y-88569030D01*
X177577428Y-88560765D01*
X177601227Y-88554804D01*
X177625495Y-88551204D01*
X177649999Y-88550000D01*
X178550001Y-88550000D01*
X178574505Y-88551204D01*
X178574505Y-88551204D01*
G37*
D14*
X178100000Y-89125000D03*
D10*
G36*
X178574505Y-86501204D02*
G01*
X178598773Y-86504804D01*
X178622572Y-86510765D01*
X178645671Y-86519030D01*
X178667850Y-86529520D01*
X178688893Y-86542132D01*
X178708599Y-86556747D01*
X178726777Y-86573223D01*
X178743253Y-86591401D01*
X178757868Y-86611107D01*
X178770480Y-86632150D01*
X178780970Y-86654329D01*
X178789235Y-86677428D01*
X178795196Y-86701227D01*
X178798796Y-86725495D01*
X178800000Y-86749999D01*
X178800000Y-87400001D01*
X178798796Y-87424505D01*
X178795196Y-87448773D01*
X178789235Y-87472572D01*
X178780970Y-87495671D01*
X178770480Y-87517850D01*
X178757868Y-87538893D01*
X178743253Y-87558599D01*
X178726777Y-87576777D01*
X178708599Y-87593253D01*
X178688893Y-87607868D01*
X178667850Y-87620480D01*
X178645671Y-87630970D01*
X178622572Y-87639235D01*
X178598773Y-87645196D01*
X178574505Y-87648796D01*
X178550001Y-87650000D01*
X177649999Y-87650000D01*
X177625495Y-87648796D01*
X177601227Y-87645196D01*
X177577428Y-87639235D01*
X177554329Y-87630970D01*
X177532150Y-87620480D01*
X177511107Y-87607868D01*
X177491401Y-87593253D01*
X177473223Y-87576777D01*
X177456747Y-87558599D01*
X177442132Y-87538893D01*
X177429520Y-87517850D01*
X177419030Y-87495671D01*
X177410765Y-87472572D01*
X177404804Y-87448773D01*
X177401204Y-87424505D01*
X177400000Y-87400001D01*
X177400000Y-86749999D01*
X177401204Y-86725495D01*
X177404804Y-86701227D01*
X177410765Y-86677428D01*
X177419030Y-86654329D01*
X177429520Y-86632150D01*
X177442132Y-86611107D01*
X177456747Y-86591401D01*
X177473223Y-86573223D01*
X177491401Y-86556747D01*
X177511107Y-86542132D01*
X177532150Y-86529520D01*
X177554329Y-86519030D01*
X177577428Y-86510765D01*
X177601227Y-86504804D01*
X177625495Y-86501204D01*
X177649999Y-86500000D01*
X178550001Y-86500000D01*
X178574505Y-86501204D01*
X178574505Y-86501204D01*
G37*
D14*
X178100000Y-87075000D03*
D10*
G36*
X167874505Y-104751204D02*
G01*
X167898773Y-104754804D01*
X167922572Y-104760765D01*
X167945671Y-104769030D01*
X167967850Y-104779520D01*
X167988893Y-104792132D01*
X168008599Y-104806747D01*
X168026777Y-104823223D01*
X168043253Y-104841401D01*
X168057868Y-104861107D01*
X168070480Y-104882150D01*
X168080970Y-104904329D01*
X168089235Y-104927428D01*
X168095196Y-104951227D01*
X168098796Y-104975495D01*
X168100000Y-104999999D01*
X168100000Y-105650001D01*
X168098796Y-105674505D01*
X168095196Y-105698773D01*
X168089235Y-105722572D01*
X168080970Y-105745671D01*
X168070480Y-105767850D01*
X168057868Y-105788893D01*
X168043253Y-105808599D01*
X168026777Y-105826777D01*
X168008599Y-105843253D01*
X167988893Y-105857868D01*
X167967850Y-105870480D01*
X167945671Y-105880970D01*
X167922572Y-105889235D01*
X167898773Y-105895196D01*
X167874505Y-105898796D01*
X167850001Y-105900000D01*
X166949999Y-105900000D01*
X166925495Y-105898796D01*
X166901227Y-105895196D01*
X166877428Y-105889235D01*
X166854329Y-105880970D01*
X166832150Y-105870480D01*
X166811107Y-105857868D01*
X166791401Y-105843253D01*
X166773223Y-105826777D01*
X166756747Y-105808599D01*
X166742132Y-105788893D01*
X166729520Y-105767850D01*
X166719030Y-105745671D01*
X166710765Y-105722572D01*
X166704804Y-105698773D01*
X166701204Y-105674505D01*
X166700000Y-105650001D01*
X166700000Y-104999999D01*
X166701204Y-104975495D01*
X166704804Y-104951227D01*
X166710765Y-104927428D01*
X166719030Y-104904329D01*
X166729520Y-104882150D01*
X166742132Y-104861107D01*
X166756747Y-104841401D01*
X166773223Y-104823223D01*
X166791401Y-104806747D01*
X166811107Y-104792132D01*
X166832150Y-104779520D01*
X166854329Y-104769030D01*
X166877428Y-104760765D01*
X166901227Y-104754804D01*
X166925495Y-104751204D01*
X166949999Y-104750000D01*
X167850001Y-104750000D01*
X167874505Y-104751204D01*
X167874505Y-104751204D01*
G37*
D14*
X167400000Y-105325000D03*
D10*
G36*
X167874505Y-102701204D02*
G01*
X167898773Y-102704804D01*
X167922572Y-102710765D01*
X167945671Y-102719030D01*
X167967850Y-102729520D01*
X167988893Y-102742132D01*
X168008599Y-102756747D01*
X168026777Y-102773223D01*
X168043253Y-102791401D01*
X168057868Y-102811107D01*
X168070480Y-102832150D01*
X168080970Y-102854329D01*
X168089235Y-102877428D01*
X168095196Y-102901227D01*
X168098796Y-102925495D01*
X168100000Y-102949999D01*
X168100000Y-103600001D01*
X168098796Y-103624505D01*
X168095196Y-103648773D01*
X168089235Y-103672572D01*
X168080970Y-103695671D01*
X168070480Y-103717850D01*
X168057868Y-103738893D01*
X168043253Y-103758599D01*
X168026777Y-103776777D01*
X168008599Y-103793253D01*
X167988893Y-103807868D01*
X167967850Y-103820480D01*
X167945671Y-103830970D01*
X167922572Y-103839235D01*
X167898773Y-103845196D01*
X167874505Y-103848796D01*
X167850001Y-103850000D01*
X166949999Y-103850000D01*
X166925495Y-103848796D01*
X166901227Y-103845196D01*
X166877428Y-103839235D01*
X166854329Y-103830970D01*
X166832150Y-103820480D01*
X166811107Y-103807868D01*
X166791401Y-103793253D01*
X166773223Y-103776777D01*
X166756747Y-103758599D01*
X166742132Y-103738893D01*
X166729520Y-103717850D01*
X166719030Y-103695671D01*
X166710765Y-103672572D01*
X166704804Y-103648773D01*
X166701204Y-103624505D01*
X166700000Y-103600001D01*
X166700000Y-102949999D01*
X166701204Y-102925495D01*
X166704804Y-102901227D01*
X166710765Y-102877428D01*
X166719030Y-102854329D01*
X166729520Y-102832150D01*
X166742132Y-102811107D01*
X166756747Y-102791401D01*
X166773223Y-102773223D01*
X166791401Y-102756747D01*
X166811107Y-102742132D01*
X166832150Y-102729520D01*
X166854329Y-102719030D01*
X166877428Y-102710765D01*
X166901227Y-102704804D01*
X166925495Y-102701204D01*
X166949999Y-102700000D01*
X167850001Y-102700000D01*
X167874505Y-102701204D01*
X167874505Y-102701204D01*
G37*
D14*
X167400000Y-103275000D03*
D10*
G36*
X173674505Y-100401204D02*
G01*
X173698773Y-100404804D01*
X173722572Y-100410765D01*
X173745671Y-100419030D01*
X173767850Y-100429520D01*
X173788893Y-100442132D01*
X173808599Y-100456747D01*
X173826777Y-100473223D01*
X173843253Y-100491401D01*
X173857868Y-100511107D01*
X173870480Y-100532150D01*
X173880970Y-100554329D01*
X173889235Y-100577428D01*
X173895196Y-100601227D01*
X173898796Y-100625495D01*
X173900000Y-100649999D01*
X173900000Y-101550001D01*
X173898796Y-101574505D01*
X173895196Y-101598773D01*
X173889235Y-101622572D01*
X173880970Y-101645671D01*
X173870480Y-101667850D01*
X173857868Y-101688893D01*
X173843253Y-101708599D01*
X173826777Y-101726777D01*
X173808599Y-101743253D01*
X173788893Y-101757868D01*
X173767850Y-101770480D01*
X173745671Y-101780970D01*
X173722572Y-101789235D01*
X173698773Y-101795196D01*
X173674505Y-101798796D01*
X173650001Y-101800000D01*
X172999999Y-101800000D01*
X172975495Y-101798796D01*
X172951227Y-101795196D01*
X172927428Y-101789235D01*
X172904329Y-101780970D01*
X172882150Y-101770480D01*
X172861107Y-101757868D01*
X172841401Y-101743253D01*
X172823223Y-101726777D01*
X172806747Y-101708599D01*
X172792132Y-101688893D01*
X172779520Y-101667850D01*
X172769030Y-101645671D01*
X172760765Y-101622572D01*
X172754804Y-101598773D01*
X172751204Y-101574505D01*
X172750000Y-101550001D01*
X172750000Y-100649999D01*
X172751204Y-100625495D01*
X172754804Y-100601227D01*
X172760765Y-100577428D01*
X172769030Y-100554329D01*
X172779520Y-100532150D01*
X172792132Y-100511107D01*
X172806747Y-100491401D01*
X172823223Y-100473223D01*
X172841401Y-100456747D01*
X172861107Y-100442132D01*
X172882150Y-100429520D01*
X172904329Y-100419030D01*
X172927428Y-100410765D01*
X172951227Y-100404804D01*
X172975495Y-100401204D01*
X172999999Y-100400000D01*
X173650001Y-100400000D01*
X173674505Y-100401204D01*
X173674505Y-100401204D01*
G37*
D14*
X173325000Y-101100000D03*
D10*
G36*
X171624505Y-100401204D02*
G01*
X171648773Y-100404804D01*
X171672572Y-100410765D01*
X171695671Y-100419030D01*
X171717850Y-100429520D01*
X171738893Y-100442132D01*
X171758599Y-100456747D01*
X171776777Y-100473223D01*
X171793253Y-100491401D01*
X171807868Y-100511107D01*
X171820480Y-100532150D01*
X171830970Y-100554329D01*
X171839235Y-100577428D01*
X171845196Y-100601227D01*
X171848796Y-100625495D01*
X171850000Y-100649999D01*
X171850000Y-101550001D01*
X171848796Y-101574505D01*
X171845196Y-101598773D01*
X171839235Y-101622572D01*
X171830970Y-101645671D01*
X171820480Y-101667850D01*
X171807868Y-101688893D01*
X171793253Y-101708599D01*
X171776777Y-101726777D01*
X171758599Y-101743253D01*
X171738893Y-101757868D01*
X171717850Y-101770480D01*
X171695671Y-101780970D01*
X171672572Y-101789235D01*
X171648773Y-101795196D01*
X171624505Y-101798796D01*
X171600001Y-101800000D01*
X170949999Y-101800000D01*
X170925495Y-101798796D01*
X170901227Y-101795196D01*
X170877428Y-101789235D01*
X170854329Y-101780970D01*
X170832150Y-101770480D01*
X170811107Y-101757868D01*
X170791401Y-101743253D01*
X170773223Y-101726777D01*
X170756747Y-101708599D01*
X170742132Y-101688893D01*
X170729520Y-101667850D01*
X170719030Y-101645671D01*
X170710765Y-101622572D01*
X170704804Y-101598773D01*
X170701204Y-101574505D01*
X170700000Y-101550001D01*
X170700000Y-100649999D01*
X170701204Y-100625495D01*
X170704804Y-100601227D01*
X170710765Y-100577428D01*
X170719030Y-100554329D01*
X170729520Y-100532150D01*
X170742132Y-100511107D01*
X170756747Y-100491401D01*
X170773223Y-100473223D01*
X170791401Y-100456747D01*
X170811107Y-100442132D01*
X170832150Y-100429520D01*
X170854329Y-100419030D01*
X170877428Y-100410765D01*
X170901227Y-100404804D01*
X170925495Y-100401204D01*
X170949999Y-100400000D01*
X171600001Y-100400000D01*
X171624505Y-100401204D01*
X171624505Y-100401204D01*
G37*
D14*
X171275000Y-101100000D03*
D10*
G36*
X171624505Y-91701204D02*
G01*
X171648773Y-91704804D01*
X171672572Y-91710765D01*
X171695671Y-91719030D01*
X171717850Y-91729520D01*
X171738893Y-91742132D01*
X171758599Y-91756747D01*
X171776777Y-91773223D01*
X171793253Y-91791401D01*
X171807868Y-91811107D01*
X171820480Y-91832150D01*
X171830970Y-91854329D01*
X171839235Y-91877428D01*
X171845196Y-91901227D01*
X171848796Y-91925495D01*
X171850000Y-91949999D01*
X171850000Y-92850001D01*
X171848796Y-92874505D01*
X171845196Y-92898773D01*
X171839235Y-92922572D01*
X171830970Y-92945671D01*
X171820480Y-92967850D01*
X171807868Y-92988893D01*
X171793253Y-93008599D01*
X171776777Y-93026777D01*
X171758599Y-93043253D01*
X171738893Y-93057868D01*
X171717850Y-93070480D01*
X171695671Y-93080970D01*
X171672572Y-93089235D01*
X171648773Y-93095196D01*
X171624505Y-93098796D01*
X171600001Y-93100000D01*
X170949999Y-93100000D01*
X170925495Y-93098796D01*
X170901227Y-93095196D01*
X170877428Y-93089235D01*
X170854329Y-93080970D01*
X170832150Y-93070480D01*
X170811107Y-93057868D01*
X170791401Y-93043253D01*
X170773223Y-93026777D01*
X170756747Y-93008599D01*
X170742132Y-92988893D01*
X170729520Y-92967850D01*
X170719030Y-92945671D01*
X170710765Y-92922572D01*
X170704804Y-92898773D01*
X170701204Y-92874505D01*
X170700000Y-92850001D01*
X170700000Y-91949999D01*
X170701204Y-91925495D01*
X170704804Y-91901227D01*
X170710765Y-91877428D01*
X170719030Y-91854329D01*
X170729520Y-91832150D01*
X170742132Y-91811107D01*
X170756747Y-91791401D01*
X170773223Y-91773223D01*
X170791401Y-91756747D01*
X170811107Y-91742132D01*
X170832150Y-91729520D01*
X170854329Y-91719030D01*
X170877428Y-91710765D01*
X170901227Y-91704804D01*
X170925495Y-91701204D01*
X170949999Y-91700000D01*
X171600001Y-91700000D01*
X171624505Y-91701204D01*
X171624505Y-91701204D01*
G37*
D14*
X171275000Y-92400000D03*
D10*
G36*
X173674505Y-91701204D02*
G01*
X173698773Y-91704804D01*
X173722572Y-91710765D01*
X173745671Y-91719030D01*
X173767850Y-91729520D01*
X173788893Y-91742132D01*
X173808599Y-91756747D01*
X173826777Y-91773223D01*
X173843253Y-91791401D01*
X173857868Y-91811107D01*
X173870480Y-91832150D01*
X173880970Y-91854329D01*
X173889235Y-91877428D01*
X173895196Y-91901227D01*
X173898796Y-91925495D01*
X173900000Y-91949999D01*
X173900000Y-92850001D01*
X173898796Y-92874505D01*
X173895196Y-92898773D01*
X173889235Y-92922572D01*
X173880970Y-92945671D01*
X173870480Y-92967850D01*
X173857868Y-92988893D01*
X173843253Y-93008599D01*
X173826777Y-93026777D01*
X173808599Y-93043253D01*
X173788893Y-93057868D01*
X173767850Y-93070480D01*
X173745671Y-93080970D01*
X173722572Y-93089235D01*
X173698773Y-93095196D01*
X173674505Y-93098796D01*
X173650001Y-93100000D01*
X172999999Y-93100000D01*
X172975495Y-93098796D01*
X172951227Y-93095196D01*
X172927428Y-93089235D01*
X172904329Y-93080970D01*
X172882150Y-93070480D01*
X172861107Y-93057868D01*
X172841401Y-93043253D01*
X172823223Y-93026777D01*
X172806747Y-93008599D01*
X172792132Y-92988893D01*
X172779520Y-92967850D01*
X172769030Y-92945671D01*
X172760765Y-92922572D01*
X172754804Y-92898773D01*
X172751204Y-92874505D01*
X172750000Y-92850001D01*
X172750000Y-91949999D01*
X172751204Y-91925495D01*
X172754804Y-91901227D01*
X172760765Y-91877428D01*
X172769030Y-91854329D01*
X172779520Y-91832150D01*
X172792132Y-91811107D01*
X172806747Y-91791401D01*
X172823223Y-91773223D01*
X172841401Y-91756747D01*
X172861107Y-91742132D01*
X172882150Y-91729520D01*
X172904329Y-91719030D01*
X172927428Y-91710765D01*
X172951227Y-91704804D01*
X172975495Y-91701204D01*
X172999999Y-91700000D01*
X173650001Y-91700000D01*
X173674505Y-91701204D01*
X173674505Y-91701204D01*
G37*
D14*
X173325000Y-92400000D03*
M02*
