G04 #@! TF.GenerationSoftware,KiCad,Pcbnew,(5.1.4)-1*
G04 #@! TF.CreationDate,2020-02-21T12:34:06+01:00*
G04 #@! TF.ProjectId,HB-UNI-Sen-TEMP-MAX6675,48422d55-4e49-42d5-9365-6e2d54454d50,rev?*
G04 #@! TF.SameCoordinates,Original*
G04 #@! TF.FileFunction,Soldermask,Bot*
G04 #@! TF.FilePolarity,Negative*
%FSLAX46Y46*%
G04 Gerber Fmt 4.6, Leading zero omitted, Abs format (unit mm)*
G04 Created by KiCad (PCBNEW (5.1.4)-1) date 2020-02-21 12:34:06*
%MOMM*%
%LPD*%
G04 APERTURE LIST*
%ADD10C,1.000000*%
%ADD11C,0.100000*%
G04 APERTURE END LIST*
D10*
X179300000Y-72900000D02*
G75*
G03X179300000Y-72900000I-1116356J0D01*
G01*
X145300000Y-72900000D02*
G75*
G03X145300000Y-72900000I-1116356J0D01*
G01*
X179300000Y-117600000D02*
G75*
G03X179300000Y-117600000I-1116356J0D01*
G01*
X145300000Y-117600000D02*
G75*
G03X145300000Y-117600000I-1116356J0D01*
G01*
D11*
G36*
X178414794Y-116520155D02*
G01*
X178521150Y-116541311D01*
X178721520Y-116624307D01*
X178901844Y-116744795D01*
X179055205Y-116898156D01*
X179175693Y-117078480D01*
X179175693Y-117078481D01*
X179258689Y-117278850D01*
X179301000Y-117491561D01*
X179301000Y-117708439D01*
X179258689Y-117921150D01*
X179217191Y-118021334D01*
X179175693Y-118121520D01*
X179055205Y-118301844D01*
X178901844Y-118455205D01*
X178721520Y-118575693D01*
X178621334Y-118617191D01*
X178521150Y-118658689D01*
X178414795Y-118679844D01*
X178308440Y-118701000D01*
X178091560Y-118701000D01*
X177985205Y-118679844D01*
X177878850Y-118658689D01*
X177778666Y-118617191D01*
X177678480Y-118575693D01*
X177498156Y-118455205D01*
X177344795Y-118301844D01*
X177224307Y-118121520D01*
X177182809Y-118021334D01*
X177141311Y-117921150D01*
X177099000Y-117708439D01*
X177099000Y-117491561D01*
X177141311Y-117278850D01*
X177224307Y-117078481D01*
X177224307Y-117078480D01*
X177344795Y-116898156D01*
X177498156Y-116744795D01*
X177678480Y-116624307D01*
X177878850Y-116541311D01*
X177985206Y-116520155D01*
X178091560Y-116499000D01*
X178308440Y-116499000D01*
X178414794Y-116520155D01*
X178414794Y-116520155D01*
G37*
G36*
X144414794Y-116520155D02*
G01*
X144521150Y-116541311D01*
X144721520Y-116624307D01*
X144901844Y-116744795D01*
X145055205Y-116898156D01*
X145175693Y-117078480D01*
X145175693Y-117078481D01*
X145258689Y-117278850D01*
X145301000Y-117491561D01*
X145301000Y-117708439D01*
X145258689Y-117921150D01*
X145217191Y-118021334D01*
X145175693Y-118121520D01*
X145055205Y-118301844D01*
X144901844Y-118455205D01*
X144721520Y-118575693D01*
X144621334Y-118617191D01*
X144521150Y-118658689D01*
X144414795Y-118679844D01*
X144308440Y-118701000D01*
X144091560Y-118701000D01*
X143985205Y-118679844D01*
X143878850Y-118658689D01*
X143778666Y-118617191D01*
X143678480Y-118575693D01*
X143498156Y-118455205D01*
X143344795Y-118301844D01*
X143224307Y-118121520D01*
X143182809Y-118021334D01*
X143141311Y-117921150D01*
X143099000Y-117708439D01*
X143099000Y-117491561D01*
X143141311Y-117278850D01*
X143224307Y-117078481D01*
X143224307Y-117078480D01*
X143344795Y-116898156D01*
X143498156Y-116744795D01*
X143678480Y-116624307D01*
X143878850Y-116541311D01*
X143985206Y-116520155D01*
X144091560Y-116499000D01*
X144308440Y-116499000D01*
X144414794Y-116520155D01*
X144414794Y-116520155D01*
G37*
G36*
X168313000Y-117951000D02*
G01*
X165687000Y-117951000D01*
X165687000Y-116649000D01*
X168313000Y-116649000D01*
X168313000Y-117951000D01*
X168313000Y-117951000D01*
G37*
G36*
X168313000Y-115951000D02*
G01*
X165687000Y-115951000D01*
X165687000Y-114649000D01*
X168313000Y-114649000D01*
X168313000Y-115951000D01*
X168313000Y-115951000D01*
G37*
G36*
X168313000Y-113951000D02*
G01*
X165687000Y-113951000D01*
X165687000Y-112649000D01*
X168313000Y-112649000D01*
X168313000Y-113951000D01*
X168313000Y-113951000D01*
G37*
G36*
X149313000Y-109951000D02*
G01*
X148130795Y-109951000D01*
X148106409Y-109953402D01*
X148082960Y-109960515D01*
X148061349Y-109972066D01*
X148042407Y-109987611D01*
X148026862Y-110006553D01*
X148015311Y-110028164D01*
X148008198Y-110051613D01*
X148005796Y-110075999D01*
X148008198Y-110100385D01*
X148015311Y-110123834D01*
X148026862Y-110145445D01*
X148042407Y-110164387D01*
X148061349Y-110179932D01*
X148082960Y-110191483D01*
X148106409Y-110198596D01*
X148215775Y-110220351D01*
X148321150Y-110241311D01*
X148421334Y-110282809D01*
X148521520Y-110324307D01*
X148701844Y-110444795D01*
X148855205Y-110598156D01*
X148975693Y-110778480D01*
X149058689Y-110978851D01*
X149101000Y-111191560D01*
X149101000Y-111408440D01*
X149058689Y-111621149D01*
X148975693Y-111821520D01*
X148855205Y-112001844D01*
X148701844Y-112155205D01*
X148521520Y-112275693D01*
X148421334Y-112317191D01*
X148321150Y-112358689D01*
X148215775Y-112379649D01*
X148106409Y-112401404D01*
X148082960Y-112408517D01*
X148061349Y-112420068D01*
X148042407Y-112435614D01*
X148026862Y-112454555D01*
X148015311Y-112476166D01*
X148008198Y-112499615D01*
X148005796Y-112524001D01*
X148008198Y-112548387D01*
X148015311Y-112571836D01*
X148026862Y-112593447D01*
X148042408Y-112612389D01*
X148061349Y-112627934D01*
X148082960Y-112639485D01*
X148106409Y-112646598D01*
X148130795Y-112649000D01*
X149313000Y-112649000D01*
X149313000Y-113951000D01*
X146687000Y-113951000D01*
X146687000Y-112649000D01*
X147869205Y-112649000D01*
X147893591Y-112646598D01*
X147917040Y-112639485D01*
X147938651Y-112627934D01*
X147957593Y-112612389D01*
X147973138Y-112593447D01*
X147984689Y-112571836D01*
X147991802Y-112548387D01*
X147994204Y-112524001D01*
X147991802Y-112499615D01*
X147984689Y-112476166D01*
X147973138Y-112454555D01*
X147957593Y-112435613D01*
X147938651Y-112420068D01*
X147917040Y-112408517D01*
X147893591Y-112401404D01*
X147784225Y-112379649D01*
X147678850Y-112358689D01*
X147578666Y-112317191D01*
X147478480Y-112275693D01*
X147298156Y-112155205D01*
X147144795Y-112001844D01*
X147024307Y-111821520D01*
X146941311Y-111621149D01*
X146899000Y-111408440D01*
X146899000Y-111191560D01*
X146941311Y-110978851D01*
X147024307Y-110778480D01*
X147144795Y-110598156D01*
X147298156Y-110444795D01*
X147478480Y-110324307D01*
X147678850Y-110241311D01*
X147784225Y-110220351D01*
X147893591Y-110198596D01*
X147917040Y-110191483D01*
X147938651Y-110179932D01*
X147957593Y-110164386D01*
X147973138Y-110145445D01*
X147984689Y-110123834D01*
X147991802Y-110100385D01*
X147994204Y-110075999D01*
X147991802Y-110051613D01*
X147984689Y-110028164D01*
X147973138Y-110006553D01*
X147957592Y-109987611D01*
X147938651Y-109972066D01*
X147917040Y-109960515D01*
X147893591Y-109953402D01*
X147869205Y-109951000D01*
X146687000Y-109951000D01*
X146687000Y-108649000D01*
X149313000Y-108649000D01*
X149313000Y-109951000D01*
X149313000Y-109951000D01*
G37*
G36*
X177640443Y-111555519D02*
G01*
X177706627Y-111562037D01*
X177876466Y-111613557D01*
X177876468Y-111613558D01*
X177954728Y-111655389D01*
X178032991Y-111697222D01*
X178068729Y-111726552D01*
X178170186Y-111809814D01*
X178247097Y-111903532D01*
X178282778Y-111947009D01*
X178282779Y-111947011D01*
X178350322Y-112073373D01*
X178366443Y-112103534D01*
X178417963Y-112273373D01*
X178435359Y-112450000D01*
X178417963Y-112626627D01*
X178366443Y-112796466D01*
X178282778Y-112952991D01*
X178253448Y-112988729D01*
X178170186Y-113090186D01*
X178068729Y-113173448D01*
X178032991Y-113202778D01*
X177876466Y-113286443D01*
X177706627Y-113337963D01*
X177640443Y-113344481D01*
X177574260Y-113351000D01*
X177485740Y-113351000D01*
X177419557Y-113344481D01*
X177353373Y-113337963D01*
X177183534Y-113286443D01*
X177027009Y-113202778D01*
X176991271Y-113173448D01*
X176889814Y-113090186D01*
X176806552Y-112988729D01*
X176777222Y-112952991D01*
X176693557Y-112796466D01*
X176642037Y-112626627D01*
X176624641Y-112450000D01*
X176642037Y-112273373D01*
X176693557Y-112103534D01*
X176709679Y-112073373D01*
X176777221Y-111947011D01*
X176777222Y-111947009D01*
X176812903Y-111903532D01*
X176889814Y-111809814D01*
X176991271Y-111726552D01*
X177027009Y-111697222D01*
X177105272Y-111655389D01*
X177183532Y-111613558D01*
X177183534Y-111613557D01*
X177353373Y-111562037D01*
X177419557Y-111555519D01*
X177485740Y-111549000D01*
X177574260Y-111549000D01*
X177640443Y-111555519D01*
X177640443Y-111555519D01*
G37*
G36*
X173351000Y-113351000D02*
G01*
X171549000Y-113351000D01*
X171549000Y-111549000D01*
X173351000Y-111549000D01*
X173351000Y-113351000D01*
X173351000Y-113351000D01*
G37*
G36*
X175100442Y-111355518D02*
G01*
X175166627Y-111362037D01*
X175336466Y-111413557D01*
X175492991Y-111497222D01*
X175528729Y-111526552D01*
X175630186Y-111609814D01*
X175701918Y-111697221D01*
X175742778Y-111747009D01*
X175826443Y-111903534D01*
X175877963Y-112073373D01*
X175895359Y-112250000D01*
X175877963Y-112426627D01*
X175826443Y-112596466D01*
X175826442Y-112596468D01*
X175809623Y-112627934D01*
X175742778Y-112752991D01*
X175713448Y-112788729D01*
X175630186Y-112890186D01*
X175528729Y-112973448D01*
X175492991Y-113002778D01*
X175336466Y-113086443D01*
X175166627Y-113137963D01*
X175100442Y-113144482D01*
X175034260Y-113151000D01*
X174945740Y-113151000D01*
X174879558Y-113144482D01*
X174813373Y-113137963D01*
X174643534Y-113086443D01*
X174487009Y-113002778D01*
X174451271Y-112973448D01*
X174349814Y-112890186D01*
X174266552Y-112788729D01*
X174237222Y-112752991D01*
X174170377Y-112627934D01*
X174153558Y-112596468D01*
X174153557Y-112596466D01*
X174102037Y-112426627D01*
X174084641Y-112250000D01*
X174102037Y-112073373D01*
X174153557Y-111903534D01*
X174237222Y-111747009D01*
X174278082Y-111697221D01*
X174349814Y-111609814D01*
X174451271Y-111526552D01*
X174487009Y-111497222D01*
X174643534Y-111413557D01*
X174813373Y-111362037D01*
X174879558Y-111355518D01*
X174945740Y-111349000D01*
X175034260Y-111349000D01*
X175100442Y-111355518D01*
X175100442Y-111355518D01*
G37*
G36*
X168313000Y-111951000D02*
G01*
X165687000Y-111951000D01*
X165687000Y-110649000D01*
X168313000Y-110649000D01*
X168313000Y-111951000D01*
X168313000Y-111951000D01*
G37*
G36*
X177640443Y-109055519D02*
G01*
X177706627Y-109062037D01*
X177876466Y-109113557D01*
X178032991Y-109197222D01*
X178068729Y-109226552D01*
X178170186Y-109309814D01*
X178247097Y-109403532D01*
X178282778Y-109447009D01*
X178282779Y-109447011D01*
X178350322Y-109573373D01*
X178366443Y-109603534D01*
X178417963Y-109773373D01*
X178435359Y-109950000D01*
X178417963Y-110126627D01*
X178366443Y-110296466D01*
X178282778Y-110452991D01*
X178253448Y-110488729D01*
X178170186Y-110590186D01*
X178068729Y-110673448D01*
X178032991Y-110702778D01*
X177876466Y-110786443D01*
X177706627Y-110837963D01*
X177640443Y-110844481D01*
X177574260Y-110851000D01*
X177485740Y-110851000D01*
X177419557Y-110844481D01*
X177353373Y-110837963D01*
X177183534Y-110786443D01*
X177027009Y-110702778D01*
X176991271Y-110673448D01*
X176889814Y-110590186D01*
X176806552Y-110488729D01*
X176777222Y-110452991D01*
X176693557Y-110296466D01*
X176642037Y-110126627D01*
X176624641Y-109950000D01*
X176642037Y-109773373D01*
X176693557Y-109603534D01*
X176709679Y-109573373D01*
X176777221Y-109447011D01*
X176777222Y-109447009D01*
X176812903Y-109403532D01*
X176889814Y-109309814D01*
X176991271Y-109226552D01*
X177027009Y-109197222D01*
X177183534Y-109113557D01*
X177353373Y-109062037D01*
X177419557Y-109055519D01*
X177485740Y-109049000D01*
X177574260Y-109049000D01*
X177640443Y-109055519D01*
X177640443Y-109055519D01*
G37*
G36*
X172563512Y-109053927D02*
G01*
X172712812Y-109083624D01*
X172876784Y-109151544D01*
X173024354Y-109250147D01*
X173149853Y-109375646D01*
X173248456Y-109523216D01*
X173316376Y-109687188D01*
X173351000Y-109861259D01*
X173351000Y-110038741D01*
X173316376Y-110212812D01*
X173248456Y-110376784D01*
X173149853Y-110524354D01*
X173024354Y-110649853D01*
X172876784Y-110748456D01*
X172712812Y-110816376D01*
X172563512Y-110846073D01*
X172538742Y-110851000D01*
X172361258Y-110851000D01*
X172336488Y-110846073D01*
X172187188Y-110816376D01*
X172023216Y-110748456D01*
X171875646Y-110649853D01*
X171750147Y-110524354D01*
X171651544Y-110376784D01*
X171583624Y-110212812D01*
X171549000Y-110038741D01*
X171549000Y-109861259D01*
X171583624Y-109687188D01*
X171651544Y-109523216D01*
X171750147Y-109375646D01*
X171875646Y-109250147D01*
X172023216Y-109151544D01*
X172187188Y-109083624D01*
X172336488Y-109053927D01*
X172361258Y-109049000D01*
X172538742Y-109049000D01*
X172563512Y-109053927D01*
X172563512Y-109053927D01*
G37*
G36*
X175100442Y-108855518D02*
G01*
X175166627Y-108862037D01*
X175336466Y-108913557D01*
X175492991Y-108997222D01*
X175528729Y-109026552D01*
X175630186Y-109109814D01*
X175701918Y-109197221D01*
X175742778Y-109247009D01*
X175826443Y-109403534D01*
X175877963Y-109573373D01*
X175895359Y-109750000D01*
X175877963Y-109926627D01*
X175826443Y-110096466D01*
X175826442Y-110096468D01*
X175800263Y-110145445D01*
X175742778Y-110252991D01*
X175713448Y-110288729D01*
X175630186Y-110390186D01*
X175528729Y-110473448D01*
X175492991Y-110502778D01*
X175336466Y-110586443D01*
X175166627Y-110637963D01*
X175100442Y-110644482D01*
X175034260Y-110651000D01*
X174945740Y-110651000D01*
X174879558Y-110644482D01*
X174813373Y-110637963D01*
X174643534Y-110586443D01*
X174487009Y-110502778D01*
X174451271Y-110473448D01*
X174349814Y-110390186D01*
X174266552Y-110288729D01*
X174237222Y-110252991D01*
X174179737Y-110145445D01*
X174153558Y-110096468D01*
X174153557Y-110096466D01*
X174102037Y-109926627D01*
X174084641Y-109750000D01*
X174102037Y-109573373D01*
X174153557Y-109403534D01*
X174237222Y-109247009D01*
X174278082Y-109197221D01*
X174349814Y-109109814D01*
X174451271Y-109026552D01*
X174487009Y-108997222D01*
X174643534Y-108913557D01*
X174813373Y-108862037D01*
X174879558Y-108855518D01*
X174945740Y-108849000D01*
X175034260Y-108849000D01*
X175100442Y-108855518D01*
X175100442Y-108855518D01*
G37*
G36*
X168313000Y-109951000D02*
G01*
X165687000Y-109951000D01*
X165687000Y-108649000D01*
X168313000Y-108649000D01*
X168313000Y-109951000D01*
X168313000Y-109951000D01*
G37*
G36*
X168313000Y-107951000D02*
G01*
X165687000Y-107951000D01*
X165687000Y-106649000D01*
X168313000Y-106649000D01*
X168313000Y-107951000D01*
X168313000Y-107951000D01*
G37*
G36*
X168313000Y-105951000D02*
G01*
X165687000Y-105951000D01*
X165687000Y-104649000D01*
X168313000Y-104649000D01*
X168313000Y-105951000D01*
X168313000Y-105951000D01*
G37*
G36*
X168313000Y-103951000D02*
G01*
X165687000Y-103951000D01*
X165687000Y-102649000D01*
X168313000Y-102649000D01*
X168313000Y-103951000D01*
X168313000Y-103951000D01*
G37*
G36*
X146151000Y-101841000D02*
G01*
X144249000Y-101841000D01*
X144249000Y-99939000D01*
X146151000Y-99939000D01*
X146151000Y-101841000D01*
X146151000Y-101841000D01*
G37*
G36*
X145477395Y-97435546D02*
G01*
X145650466Y-97507234D01*
X145650467Y-97507235D01*
X145806227Y-97611310D01*
X145938690Y-97743773D01*
X145938691Y-97743775D01*
X146042766Y-97899534D01*
X146114454Y-98072605D01*
X146151000Y-98256333D01*
X146151000Y-98443667D01*
X146114454Y-98627395D01*
X146042766Y-98800466D01*
X146042765Y-98800467D01*
X145938690Y-98956227D01*
X145806227Y-99088690D01*
X145727818Y-99141081D01*
X145650466Y-99192766D01*
X145477395Y-99264454D01*
X145293667Y-99301000D01*
X145106333Y-99301000D01*
X144922605Y-99264454D01*
X144749534Y-99192766D01*
X144672182Y-99141081D01*
X144593773Y-99088690D01*
X144461310Y-98956227D01*
X144357235Y-98800467D01*
X144357234Y-98800466D01*
X144285546Y-98627395D01*
X144249000Y-98443667D01*
X144249000Y-98256333D01*
X144285546Y-98072605D01*
X144357234Y-97899534D01*
X144461309Y-97743775D01*
X144461310Y-97743773D01*
X144593773Y-97611310D01*
X144749533Y-97507235D01*
X144749534Y-97507234D01*
X144922605Y-97435546D01*
X145106333Y-97399000D01*
X145293667Y-97399000D01*
X145477395Y-97435546D01*
X145477395Y-97435546D01*
G37*
G36*
X145410442Y-91755518D02*
G01*
X145476627Y-91762037D01*
X145646466Y-91813557D01*
X145802991Y-91897222D01*
X145838729Y-91926552D01*
X145940186Y-92009814D01*
X146023448Y-92111271D01*
X146052778Y-92147009D01*
X146136443Y-92303534D01*
X146187963Y-92473373D01*
X146205359Y-92650000D01*
X146187963Y-92826627D01*
X146136443Y-92996466D01*
X146052778Y-93152991D01*
X146023448Y-93188729D01*
X145940186Y-93290186D01*
X145838729Y-93373448D01*
X145802991Y-93402778D01*
X145646466Y-93486443D01*
X145476627Y-93537963D01*
X145410442Y-93544482D01*
X145344260Y-93551000D01*
X145255740Y-93551000D01*
X145189558Y-93544482D01*
X145123373Y-93537963D01*
X144953534Y-93486443D01*
X144797009Y-93402778D01*
X144761271Y-93373448D01*
X144659814Y-93290186D01*
X144576552Y-93188729D01*
X144547222Y-93152991D01*
X144463557Y-92996466D01*
X144412037Y-92826627D01*
X144394641Y-92650000D01*
X144412037Y-92473373D01*
X144463557Y-92303534D01*
X144547222Y-92147009D01*
X144576552Y-92111271D01*
X144659814Y-92009814D01*
X144761271Y-91926552D01*
X144797009Y-91897222D01*
X144953534Y-91813557D01*
X145123373Y-91762037D01*
X145189558Y-91755518D01*
X145255740Y-91749000D01*
X145344260Y-91749000D01*
X145410442Y-91755518D01*
X145410442Y-91755518D01*
G37*
G36*
X145210442Y-89215518D02*
G01*
X145276627Y-89222037D01*
X145446466Y-89273557D01*
X145602991Y-89357222D01*
X145638729Y-89386552D01*
X145740186Y-89469814D01*
X145823448Y-89571271D01*
X145852778Y-89607009D01*
X145936443Y-89763534D01*
X145987963Y-89933373D01*
X146005359Y-90110000D01*
X145987963Y-90286627D01*
X145936443Y-90456466D01*
X145852778Y-90612991D01*
X145823448Y-90648729D01*
X145740186Y-90750186D01*
X145638729Y-90833448D01*
X145602991Y-90862778D01*
X145446466Y-90946443D01*
X145276627Y-90997963D01*
X145210442Y-91004482D01*
X145144260Y-91011000D01*
X145055740Y-91011000D01*
X144989558Y-91004482D01*
X144923373Y-90997963D01*
X144753534Y-90946443D01*
X144597009Y-90862778D01*
X144561271Y-90833448D01*
X144459814Y-90750186D01*
X144376552Y-90648729D01*
X144347222Y-90612991D01*
X144263557Y-90456466D01*
X144212037Y-90286627D01*
X144194641Y-90110000D01*
X144212037Y-89933373D01*
X144263557Y-89763534D01*
X144347222Y-89607009D01*
X144376552Y-89571271D01*
X144459814Y-89469814D01*
X144561271Y-89386552D01*
X144597009Y-89357222D01*
X144753534Y-89273557D01*
X144923373Y-89222037D01*
X144989558Y-89215518D01*
X145055740Y-89209000D01*
X145144260Y-89209000D01*
X145210442Y-89215518D01*
X145210442Y-89215518D01*
G37*
G36*
X145410443Y-86675519D02*
G01*
X145476627Y-86682037D01*
X145646466Y-86733557D01*
X145802991Y-86817222D01*
X145838729Y-86846552D01*
X145940186Y-86929814D01*
X146023448Y-87031271D01*
X146052778Y-87067009D01*
X146136443Y-87223534D01*
X146187963Y-87393373D01*
X146205359Y-87570000D01*
X146187963Y-87746627D01*
X146136443Y-87916466D01*
X146052778Y-88072991D01*
X146023448Y-88108729D01*
X145940186Y-88210186D01*
X145838729Y-88293448D01*
X145802991Y-88322778D01*
X145646466Y-88406443D01*
X145476627Y-88457963D01*
X145410443Y-88464481D01*
X145344260Y-88471000D01*
X145255740Y-88471000D01*
X145189557Y-88464481D01*
X145123373Y-88457963D01*
X144953534Y-88406443D01*
X144797009Y-88322778D01*
X144761271Y-88293448D01*
X144659814Y-88210186D01*
X144576552Y-88108729D01*
X144547222Y-88072991D01*
X144463557Y-87916466D01*
X144412037Y-87746627D01*
X144394641Y-87570000D01*
X144412037Y-87393373D01*
X144463557Y-87223534D01*
X144547222Y-87067009D01*
X144576552Y-87031271D01*
X144659814Y-86929814D01*
X144761271Y-86846552D01*
X144797009Y-86817222D01*
X144953534Y-86733557D01*
X145123373Y-86682037D01*
X145189557Y-86675519D01*
X145255740Y-86669000D01*
X145344260Y-86669000D01*
X145410443Y-86675519D01*
X145410443Y-86675519D01*
G37*
G36*
X149051000Y-88331000D02*
G01*
X148349000Y-88331000D01*
X148349000Y-86369000D01*
X149051000Y-86369000D01*
X149051000Y-88331000D01*
X149051000Y-88331000D01*
G37*
G36*
X145210442Y-84135518D02*
G01*
X145276627Y-84142037D01*
X145446466Y-84193557D01*
X145602991Y-84277222D01*
X145638729Y-84306552D01*
X145740186Y-84389814D01*
X145823448Y-84491271D01*
X145852778Y-84527009D01*
X145936443Y-84683534D01*
X145987963Y-84853373D01*
X146005359Y-85030000D01*
X145987963Y-85206627D01*
X145936443Y-85376466D01*
X145852778Y-85532991D01*
X145823448Y-85568729D01*
X145740186Y-85670186D01*
X145638729Y-85753448D01*
X145602991Y-85782778D01*
X145446466Y-85866443D01*
X145276627Y-85917963D01*
X145210443Y-85924481D01*
X145144260Y-85931000D01*
X145055740Y-85931000D01*
X144989557Y-85924481D01*
X144923373Y-85917963D01*
X144753534Y-85866443D01*
X144597009Y-85782778D01*
X144561271Y-85753448D01*
X144459814Y-85670186D01*
X144376552Y-85568729D01*
X144347222Y-85532991D01*
X144263557Y-85376466D01*
X144212037Y-85206627D01*
X144194641Y-85030000D01*
X144212037Y-84853373D01*
X144263557Y-84683534D01*
X144347222Y-84527009D01*
X144376552Y-84491271D01*
X144459814Y-84389814D01*
X144561271Y-84306552D01*
X144597009Y-84277222D01*
X144753534Y-84193557D01*
X144923373Y-84142037D01*
X144989558Y-84135518D01*
X145055740Y-84129000D01*
X145144260Y-84129000D01*
X145210442Y-84135518D01*
X145210442Y-84135518D01*
G37*
G36*
X145410443Y-81595519D02*
G01*
X145476627Y-81602037D01*
X145646466Y-81653557D01*
X145802991Y-81737222D01*
X145838729Y-81766552D01*
X145940186Y-81849814D01*
X146023448Y-81951271D01*
X146052778Y-81987009D01*
X146136443Y-82143534D01*
X146187963Y-82313373D01*
X146205359Y-82490000D01*
X146187963Y-82666627D01*
X146136443Y-82836466D01*
X146052778Y-82992991D01*
X146023448Y-83028729D01*
X145940186Y-83130186D01*
X145838729Y-83213448D01*
X145802991Y-83242778D01*
X145646466Y-83326443D01*
X145476627Y-83377963D01*
X145410442Y-83384482D01*
X145344260Y-83391000D01*
X145255740Y-83391000D01*
X145189558Y-83384482D01*
X145123373Y-83377963D01*
X144953534Y-83326443D01*
X144797009Y-83242778D01*
X144761271Y-83213448D01*
X144659814Y-83130186D01*
X144576552Y-83028729D01*
X144547222Y-82992991D01*
X144463557Y-82836466D01*
X144412037Y-82666627D01*
X144394641Y-82490000D01*
X144412037Y-82313373D01*
X144463557Y-82143534D01*
X144547222Y-81987009D01*
X144576552Y-81951271D01*
X144659814Y-81849814D01*
X144761271Y-81766552D01*
X144797009Y-81737222D01*
X144953534Y-81653557D01*
X145123373Y-81602037D01*
X145189557Y-81595519D01*
X145255740Y-81589000D01*
X145344260Y-81589000D01*
X145410443Y-81595519D01*
X145410443Y-81595519D01*
G37*
G36*
X179701000Y-82041000D02*
G01*
X177899000Y-82041000D01*
X177899000Y-80239000D01*
X179701000Y-80239000D01*
X179701000Y-82041000D01*
X179701000Y-82041000D01*
G37*
G36*
X145213512Y-79053927D02*
G01*
X145362812Y-79083624D01*
X145526784Y-79151544D01*
X145674354Y-79250147D01*
X145799853Y-79375646D01*
X145898456Y-79523216D01*
X145966376Y-79687188D01*
X146001000Y-79861259D01*
X146001000Y-80038741D01*
X145966376Y-80212812D01*
X145898456Y-80376784D01*
X145799853Y-80524354D01*
X145674354Y-80649853D01*
X145526784Y-80748456D01*
X145362812Y-80816376D01*
X145213512Y-80846073D01*
X145188742Y-80851000D01*
X145011258Y-80851000D01*
X144986488Y-80846073D01*
X144837188Y-80816376D01*
X144673216Y-80748456D01*
X144525646Y-80649853D01*
X144400147Y-80524354D01*
X144301544Y-80376784D01*
X144233624Y-80212812D01*
X144199000Y-80038741D01*
X144199000Y-79861259D01*
X144233624Y-79687188D01*
X144301544Y-79523216D01*
X144400147Y-79375646D01*
X144525646Y-79250147D01*
X144673216Y-79151544D01*
X144837188Y-79083624D01*
X144986488Y-79053927D01*
X145011258Y-79049000D01*
X145188742Y-79049000D01*
X145213512Y-79053927D01*
X145213512Y-79053927D01*
G37*
G36*
X178913512Y-77703927D02*
G01*
X179062812Y-77733624D01*
X179226784Y-77801544D01*
X179374354Y-77900147D01*
X179499853Y-78025646D01*
X179598456Y-78173216D01*
X179666376Y-78337188D01*
X179701000Y-78511259D01*
X179701000Y-78688741D01*
X179666376Y-78862812D01*
X179598456Y-79026784D01*
X179499853Y-79174354D01*
X179374354Y-79299853D01*
X179226784Y-79398456D01*
X179062812Y-79466376D01*
X178913512Y-79496073D01*
X178888742Y-79501000D01*
X178711258Y-79501000D01*
X178686488Y-79496073D01*
X178537188Y-79466376D01*
X178373216Y-79398456D01*
X178225646Y-79299853D01*
X178100147Y-79174354D01*
X178001544Y-79026784D01*
X177933624Y-78862812D01*
X177899000Y-78688741D01*
X177899000Y-78511259D01*
X177933624Y-78337188D01*
X178001544Y-78173216D01*
X178100147Y-78025646D01*
X178225646Y-77900147D01*
X178373216Y-77801544D01*
X178537188Y-77733624D01*
X178686488Y-77703927D01*
X178711258Y-77699000D01*
X178888742Y-77699000D01*
X178913512Y-77703927D01*
X178913512Y-77703927D01*
G37*
G36*
X158141000Y-76141000D02*
G01*
X155039000Y-76141000D01*
X155039000Y-73039000D01*
X158141000Y-73039000D01*
X158141000Y-76141000D01*
X158141000Y-76141000D01*
G37*
G36*
X151812585Y-73068802D02*
G01*
X151962410Y-73098604D01*
X152244674Y-73215521D01*
X152498705Y-73385259D01*
X152714741Y-73601295D01*
X152884479Y-73855326D01*
X153001396Y-74137590D01*
X153061000Y-74437240D01*
X153061000Y-74742760D01*
X153001396Y-75042410D01*
X152884479Y-75324674D01*
X152714741Y-75578705D01*
X152498705Y-75794741D01*
X152244674Y-75964479D01*
X151962410Y-76081396D01*
X151812585Y-76111198D01*
X151662761Y-76141000D01*
X151357239Y-76141000D01*
X151207415Y-76111198D01*
X151057590Y-76081396D01*
X150775326Y-75964479D01*
X150521295Y-75794741D01*
X150305259Y-75578705D01*
X150135521Y-75324674D01*
X150018604Y-75042410D01*
X149959000Y-74742760D01*
X149959000Y-74437240D01*
X150018604Y-74137590D01*
X150135521Y-73855326D01*
X150305259Y-73601295D01*
X150521295Y-73385259D01*
X150775326Y-73215521D01*
X151057590Y-73098604D01*
X151207415Y-73068802D01*
X151357239Y-73039000D01*
X151662761Y-73039000D01*
X151812585Y-73068802D01*
X151812585Y-73068802D01*
G37*
G36*
X172201000Y-76141000D02*
G01*
X169099000Y-76141000D01*
X169099000Y-73039000D01*
X172201000Y-73039000D01*
X172201000Y-76141000D01*
X172201000Y-76141000D01*
G37*
G36*
X165872585Y-73068802D02*
G01*
X166022410Y-73098604D01*
X166304674Y-73215521D01*
X166558705Y-73385259D01*
X166774741Y-73601295D01*
X166944479Y-73855326D01*
X167061396Y-74137590D01*
X167121000Y-74437240D01*
X167121000Y-74742760D01*
X167061396Y-75042410D01*
X166944479Y-75324674D01*
X166774741Y-75578705D01*
X166558705Y-75794741D01*
X166304674Y-75964479D01*
X166022410Y-76081396D01*
X165872585Y-76111198D01*
X165722761Y-76141000D01*
X165417239Y-76141000D01*
X165267415Y-76111198D01*
X165117590Y-76081396D01*
X164835326Y-75964479D01*
X164581295Y-75794741D01*
X164365259Y-75578705D01*
X164195521Y-75324674D01*
X164078604Y-75042410D01*
X164019000Y-74742760D01*
X164019000Y-74437240D01*
X164078604Y-74137590D01*
X164195521Y-73855326D01*
X164365259Y-73601295D01*
X164581295Y-73385259D01*
X164835326Y-73215521D01*
X165117590Y-73098604D01*
X165267415Y-73068802D01*
X165417239Y-73039000D01*
X165722761Y-73039000D01*
X165872585Y-73068802D01*
X165872585Y-73068802D01*
G37*
G36*
X144414794Y-71820155D02*
G01*
X144521150Y-71841311D01*
X144721520Y-71924307D01*
X144901844Y-72044795D01*
X145055205Y-72198156D01*
X145175693Y-72378480D01*
X145175693Y-72378481D01*
X145258689Y-72578850D01*
X145301000Y-72791561D01*
X145301000Y-73008439D01*
X145259809Y-73215521D01*
X145258689Y-73221149D01*
X145175693Y-73421520D01*
X145055205Y-73601844D01*
X144901844Y-73755205D01*
X144721520Y-73875693D01*
X144521150Y-73958689D01*
X144414795Y-73979844D01*
X144308440Y-74001000D01*
X144091560Y-74001000D01*
X143985205Y-73979844D01*
X143878850Y-73958689D01*
X143778666Y-73917191D01*
X143678480Y-73875693D01*
X143498156Y-73755205D01*
X143344795Y-73601844D01*
X143224307Y-73421520D01*
X143141311Y-73221149D01*
X143140192Y-73215521D01*
X143099000Y-73008439D01*
X143099000Y-72791561D01*
X143141311Y-72578850D01*
X143224307Y-72378481D01*
X143224307Y-72378480D01*
X143344795Y-72198156D01*
X143498156Y-72044795D01*
X143678480Y-71924307D01*
X143778666Y-71882809D01*
X143878850Y-71841311D01*
X143985206Y-71820155D01*
X144091560Y-71799000D01*
X144308440Y-71799000D01*
X144414794Y-71820155D01*
X144414794Y-71820155D01*
G37*
G36*
X178414794Y-71820155D02*
G01*
X178521150Y-71841311D01*
X178721520Y-71924307D01*
X178901844Y-72044795D01*
X179055205Y-72198156D01*
X179175693Y-72378480D01*
X179175693Y-72378481D01*
X179258689Y-72578850D01*
X179301000Y-72791561D01*
X179301000Y-73008439D01*
X179259809Y-73215521D01*
X179258689Y-73221149D01*
X179175693Y-73421520D01*
X179055205Y-73601844D01*
X178901844Y-73755205D01*
X178721520Y-73875693D01*
X178521150Y-73958689D01*
X178414795Y-73979844D01*
X178308440Y-74001000D01*
X178091560Y-74001000D01*
X177985205Y-73979844D01*
X177878850Y-73958689D01*
X177778666Y-73917191D01*
X177678480Y-73875693D01*
X177498156Y-73755205D01*
X177344795Y-73601844D01*
X177224307Y-73421520D01*
X177141311Y-73221149D01*
X177140192Y-73215521D01*
X177099000Y-73008439D01*
X177099000Y-72791561D01*
X177141311Y-72578850D01*
X177224307Y-72378481D01*
X177224307Y-72378480D01*
X177344795Y-72198156D01*
X177498156Y-72044795D01*
X177678480Y-71924307D01*
X177778666Y-71882809D01*
X177878850Y-71841311D01*
X177985205Y-71820156D01*
X178091560Y-71799000D01*
X178308440Y-71799000D01*
X178414794Y-71820155D01*
X178414794Y-71820155D01*
G37*
M02*
