M48
; DRILL file {KiCad (5.1.4)-1} date 21.02.2020 12:34:10
; FORMAT={-:-/ absolute / inch / decimal}
; #@! TF.CreationDate,2020-02-21T12:34:10+01:00
; #@! TF.GenerationSoftware,Kicad,Pcbnew,(5.1.4)-1
FMAT,2
INCH
T1C0.0157
T2C0.0354
T3C0.0394
T4C0.0598
T5C0.0827
%
G90
G05
T1
X5.6654Y-4.1535
X5.9291Y-3.7717
X5.9665Y-3.4665
X6.0089Y-3.7717
X6.0354Y-3.9006
X6.0359Y-3.9808
X6.0787Y-4.2362
X6.1073Y-3.59
X6.2559Y-3.8465
X6.2669Y-3.4304
X6.2756Y-3.3543
X6.2992Y-3.9016
X6.3071Y-4.2382
X6.3661Y-3.9843
X6.378Y-4.0433
X6.378Y-3.5356
X6.4094Y-4.1929
X6.4724Y-4.2165
X6.5748Y-4.6181
X6.5906Y-3.8976
X6.5906Y-4.0659
X6.5906Y-4.1457
X6.5907Y-3.59
X6.6535Y-3.7795
X6.7441Y-3.6378
X6.75Y-3.4304
X6.7835Y-3.7992
X6.8268Y-3.9764
T2
X5.7165Y-3.872
X5.7165Y-3.972
T3
X5.7126Y-3.1476
X5.7126Y-3.3476
X5.7126Y-3.5476
X5.7205Y-3.2476
X5.7205Y-3.4476
X5.7205Y-3.6476
X7.0394Y-3.0945
X7.0394Y-3.1945
X6.7894Y-4.3287
X6.7894Y-4.4272
X6.8894Y-4.3209
X6.8894Y-4.4193
X6.9894Y-4.3287
X6.9894Y-4.4272
T4
X5.965Y-2.9366
X6.165Y-2.9366
X6.5185Y-2.9366
X6.7185Y-2.9366
T5
X7.0157Y-4.6299
X5.6772Y-4.6299
X5.6772Y-2.8701
X7.0157Y-2.8701
X5.8268Y-4.3819
T0
M30
